# Blender 3.6.5
# www.blender.org
o exteriorp6
v -0.307381 0.041930 -2.265581
v -0.324158 0.049531 -2.263693
v -0.303504 0.058280 -2.263816
v -0.325683 0.059431 -2.208552
v -0.309970 -0.062155 -2.263471
v -0.324620 -0.071356 -2.259673
v -0.302417 -0.079428 -2.263566
v -0.325204 -0.080821 -2.208562
v -0.157244 -0.080653 -2.208556
v -0.175068 0.042390 -2.265120
v -0.177877 0.058620 -2.261987
v -0.158054 0.018135 -2.264896
v -0.156670 0.059327 -2.208552
v -0.158037 0.050544 -2.259916
v -0.203057 0.058621 -2.264476
v -0.175674 -0.063330 -2.264399
v -0.157741 -0.061400 -2.262034
v -0.157701 -0.043381 -2.265656
v -0.177076 -0.079664 -2.261378
v -0.203164 -0.079315 -2.265134
v -0.157484 -0.078185 -2.253773
v -0.490665 -0.109582 -2.336903
v -0.501624 -0.093547 -2.353788
v -0.501919 -0.091830 -2.355175
v -0.198032 -0.091435 -2.352439
v -0.512997 -0.085739 -2.335910
v 0.021752 -0.085993 -2.333564
v -0.014018 -0.095430 -2.319688
v 0.021534 -0.134175 -2.333569
v -0.512865 -0.135166 -2.341804
v -0.014066 -0.124688 -2.319948
v 0.019836 -0.134930 -2.352280
v -0.490252 -0.126279 -2.321137
v 0.020346 -0.085812 -2.352836
v -0.510948 -0.085615 -2.352768
v -0.489476 -0.093717 -2.320847
vn -0.6795 0.3971 -0.6169
vn -0.1199 0.7441 -0.6573
vn -0.0527 0.0405 -0.9978
vn -0.1368 -0.7037 -0.6972
vn -0.7193 -0.4187 -0.5544
vn -0.1469 -0.0374 -0.9884
vn 0.7167 0.4478 -0.5347
vn 0.6990 0.0221 -0.7148
vn 0.0824 0.0887 -0.9926
vn 0.1761 -0.7493 -0.6384
vn 0.0156 -0.6963 -0.7175
vn 0.1748 -0.2201 -0.9597
vn 0.1699 0.7725 -0.6119
vn 0.7308 -0.2145 -0.6480
vn 0.6928 -0.0320 -0.7205
vn 0.5799 -0.5851 0.5669
vn 0.0130 0.7089 -0.7052
vn 0.6899 -0.6187 -0.3758
vn -0.5248 0.5319 -0.6645
vn -0.7443 -0.6578 -0.1149
vn -0.6938 0.5440 0.4719
vn -0.0002 0.9903 0.1390
vn -0.5859 -0.5920 0.5535
vn -0.3702 0.3513 0.8600
vn -0.7209 -0.0463 0.6915
vn -0.4234 -0.3876 0.8189
vn -0.0078 0.6274 0.7787
vn -0.0024 0.5861 0.8102
vn -0.0059 -0.5915 0.8063
vn -0.0007 -0.9860 0.1667
vn -0.0000 -0.7420 -0.6704
vn -0.5916 0.5879 0.5518
vn 0.5907 0.5862 0.5545
vn 0.0002 0.7248 -0.6889
vt 0.660167 0.508753
vt 0.659021 0.509288
vt 0.659334 0.508522
vt 0.658985 0.501947
vt 0.660165 0.502416
vt 0.659433 0.502773
vt 0.651250 0.508823
vt 0.651121 0.507324
vt 0.652037 0.508562
vt 0.652020 0.501953
vt 0.653320 0.502243
vt 0.652016 0.502660
vt 0.652023 0.509284
vt 0.651345 0.502930
vt 0.651384 0.503906
vt 0.648438 0.501953
vt 0.653320 0.509199
vt 0.650879 0.501953
vt 0.622559 0.196777
vt 0.631537 0.194582
vt 0.622559 0.193481
vt 0.621094 0.087524
vt 0.617676 0.192871
vt 0.620605 0.193359
vt 0.650879 0.499512
vt 0.660156 0.499512
vt 0.513672 0.969238
vt 0.521484 0.964355
vt 0.513672 0.958496
vt 0.519531 0.976074
vt 0.533203 0.972656
vt 0.532715 0.955078
vt 0.519531 0.952148
vt 0.532227 0.898438
vt 0.532227 0.874023
vt 0.530762 0.896973
vt 0.624512 0.094543
vt 0.624023 0.188599
vt 0.630371 0.094543
vt 0.630859 0.188599
vt 0.635293 0.193031
vt 0.633789 0.087524
vt 0.637207 0.087891
vt 0.607422 0.087891
vt 0.607910 0.192871
vt 0.663086 0.509277
vt 0.648438 0.509277
vt 0.650879 0.512207
vt 0.617676 0.087769
vt 0.663086 0.501953
vt 0.660156 0.512207
s 1
f 2/1/1 3/2/2 1/3/3
f 7/4/4 6/5/5 5/6/6
f 14/7/7 12/8/8 10/9/9
f 19/10/10 20/11/11 16/12/12
f 11/13/13 14/7/7 10/9/9
f 17/14/14 16/12/12 18/15/15
f 18/15/15 12/8/8 9/16/16
f 12/8/8 15/17/17 10/9/9
f 21/18/18 16/12/12 17/14/14
f 35/19/19 30/20/20 26/21/21
f 27/22/22 35/23/19 26/24/21
f 16/12/12 20/11/11 18/15/15
f 9/25/16 8/26/23 20/11/11
f 21/18/18 19/10/10 16/12/12
f 15/17/17 11/13/13 10/9/9
f 5/6/6 2/1/1 1/3/3
f 2/1/1 5/6/6 6/5/5
f 36/27/24 22/28/25 33/29/26
f 36/30/24 26/31/21 22/28/25
f 30/32/20 22/28/25 26/31/21
f 33/33/26 22/28/25 30/32/20
f 23/34/27 25/35/27 24/36/27
f 27/22/22 26/24/21 28/37/28
f 36/38/24 28/37/28 26/24/21
f 31/39/29 33/40/26 30/41/20
f 30/41/20 29/42/30 31/39/29
f 29/42/30 30/41/20 32/43/31
f 35/23/19 32/44/31 30/45/20
f 31/39/29 36/38/24 33/40/26
f 4/46/32 9/25/16 13/47/33
f 13/48/33 14/7/7 11/13/13
f 13/47/33 9/16/16 12/8/8
f 14/7/7 13/47/33 12/8/8
f 9/16/16 21/18/18 17/14/14
f 17/14/14 18/15/15 9/16/16
f 27/22/22 34/49/34 35/23/19
f 7/4/4 20/11/11 8/26/23
f 20/11/11 19/10/10 9/25/16
f 8/26/23 6/5/5 7/4/4
f 21/18/18 9/25/16 19/10/10
f 3/2/2 15/17/17 1/3/3
f 15/17/17 12/8/8 1/3/3
f 18/15/15 20/11/11 12/8/8
f 20/11/11 7/4/4 1/3/3
f 12/8/8 20/11/11 1/3/3
f 7/4/4 5/6/6 1/3/3
f 8/50/23 4/46/32 2/1/1
f 2/1/1 6/5/5 8/50/23
f 35/23/19 34/49/34 32/44/31
f 31/39/29 28/37/28 36/38/24
f 4/46/32 8/50/23 9/25/16
f 11/13/13 15/17/17 13/48/33
f 15/17/17 3/2/2 4/51/32
f 13/48/33 15/17/17 4/51/32
f 3/2/2 2/1/1 4/51/32
