# Blender 3.6.5
# www.blender.org
o exteriorp5
v -0.667674 -0.039649 1.981009
v -0.132453 -0.020448 1.981009
v -0.132453 -0.039649 1.981009
v -0.667712 -0.019906 1.981107
v -0.131618 -0.018849 1.981045
v -0.132322 -0.040128 1.981355
vn 0.0001 0.0146 0.9999
vn 0.0002 -0.0045 1.0000
vn 0.0002 -0.0048 1.0000
vn -0.0000 -0.0001 1.0000
vn -0.0000 -0.0000 1.0000
vt 0.427734 0.226440
vt 0.415283 0.225847
vt 0.427734 0.212036
vt 0.132935 0.386719
vt 0.866699 0.608398
vt 0.132935 0.608398
vt 0.866699 0.386719
s 1
f 5/1/1 4/2/2 6/3/1
f 1/4/3 2/5/4 4/6/2
f 1/4/3 3/7/5 2/5/4
