# Blender 3.6.5
# www.blender.org
o exteriorp4
v -0.531934 -0.367273 1.659770
v -0.657399 -0.272860 1.778951
v -0.534093 -0.351832 1.658015
v -0.534100 -0.282007 1.762741
v -0.534097 -0.289327 1.918938
v -0.530819 -0.279282 1.782166
v -0.533902 -0.443549 1.906559
v -0.657837 -0.445017 1.905434
v -0.657804 -0.453832 1.734401
v -0.529104 -0.453782 1.734523
v -0.657897 -0.420224 1.882401
v -0.657898 -0.369129 1.680854
v -0.657664 -0.299382 1.781323
v -0.529043 -0.422363 1.884338
v -0.528779 -0.314985 1.907470
v -0.657462 -0.424372 1.884939
v -0.657282 -0.481520 1.721185
v -0.657500 -0.362111 1.645239
v -0.657700 -0.293547 1.936660
v -0.657782 -0.315041 1.908350
v -0.658451 -0.429256 1.921279
v -0.658203 -0.409780 1.898897
v -0.658301 -0.440334 1.903296
v -0.529232 -0.369154 1.680362
v -0.527794 -0.275050 1.779288
v -0.528876 -0.299007 1.782139
v -0.528344 -0.409056 1.899413
v -0.533692 -0.427768 1.922279
v -0.529464 -0.420144 1.882378
v -0.532644 -0.442273 1.903807
v -0.531370 -0.477406 1.725407
v -0.534077 -0.467260 1.710803
v -0.534117 -0.377548 1.652465
v -0.529273 -0.362822 1.648445
v -0.537401 -0.283095 1.789032
v -0.527031 -0.295661 1.932710
v -0.534091 -0.309944 1.934182
v 0.529137 -0.481520 1.721185
v 0.528133 -0.440334 1.903296
v 0.654489 -0.367273 1.659770
v 0.652330 -0.351832 1.658015
v 0.652323 -0.282007 1.762741
v 0.655604 -0.279282 1.782166
v 0.652511 -0.443548 1.906558
v 0.528587 -0.445017 1.905434
v 0.657322 -0.453783 1.734522
v 0.528616 -0.453832 1.734401
v 0.528515 -0.369129 1.680854
v 0.528755 -0.299382 1.781323
v 0.657544 -0.299007 1.782139
v 0.657625 -0.314985 1.907470
v 0.657370 -0.422372 1.884340
v 0.528951 -0.424374 1.884941
v 0.528892 -0.362111 1.645239
v 0.529015 -0.272860 1.778951
v 0.528736 -0.293547 1.936661
v 0.528649 -0.315041 1.908350
v 0.528006 -0.429256 1.921279
v 0.528247 -0.409781 1.898898
v 0.528537 -0.420224 1.882401
v 0.656960 -0.420144 1.882378
v 0.657188 -0.369155 1.680362
v 0.658621 -0.275050 1.779289
v 0.658035 -0.409056 1.899413
v 0.652706 -0.427768 1.922279
v 0.653770 -0.442255 1.903803
v 0.652346 -0.467260 1.710804
v 0.655047 -0.477397 1.725443
v 0.657167 -0.362822 1.648445
v 0.652307 -0.377548 1.652464
v 0.652326 -0.289327 1.918938
v 0.648970 -0.283154 1.789080
v 0.652332 -0.309944 1.934182
v 0.659340 -0.295661 1.932711
v 0.511614 -0.156908 -2.199301
v 0.511676 -0.165982 -2.186771
v 0.511739 -0.178593 -2.192228
v 0.511748 -0.190421 -2.276655
v 0.511990 -0.229630 -2.293082
v 0.511703 -0.188181 -2.295019
v 0.511830 -0.207860 -2.308248
v 0.629653 -0.228957 -2.297906
v 0.511897 -0.228510 -2.293024
v 0.511744 -0.193576 -2.303871
v 0.629579 -0.192437 -2.296910
v 0.629131 -0.175113 -2.196968
v 0.511906 -0.175127 -2.197439
v 0.629513 -0.177249 -2.192767
v 0.629254 -0.155761 -2.193632
v 0.629390 -0.190426 -2.276654
v 0.629757 -0.228623 -2.284615
v 0.629362 -0.189119 -2.299245
v 0.629615 -0.218353 -2.305722
v 0.517108 -0.070189 -2.306209
v 0.514783 -0.043368 -2.371737
v 0.523777 -0.064481 -2.167030
v 0.514429 -0.159917 -2.213259
v 0.626359 -0.111332 -2.378888
v 0.622846 -0.087276 -2.380140
v 0.624477 -0.157050 -2.216091
v 0.514362 -0.029128 -2.243875
v 0.519839 -0.073341 -2.382968
v 0.517582 -0.113716 -2.373647
v 0.622445 -0.113261 -2.374122
v 0.530435 -0.155554 -2.209259
v 0.627058 -0.159523 -2.213042
v 0.626914 -0.137585 -2.261240
v 0.514379 -0.137791 -2.261997
v 0.524931 -0.153643 -2.288105
v 0.626362 -0.029039 -2.243838
v 0.616457 -0.029426 -2.241257
v 0.624783 -0.069432 -2.305116
v 0.626174 -0.051895 -2.161907
v 0.626551 -0.144441 -2.284836
v 0.626817 -0.063823 -2.169505
v 0.626744 -0.154666 -2.288211
v 0.518593 -0.113326 -2.373284
v 0.518855 -0.032159 -2.242644
v 0.525263 -0.029316 -2.242653
v 0.515753 -0.054829 -2.163898
v 0.518743 -0.065894 -2.171515
v 0.526412 -0.150113 -2.210115
v 0.518620 -0.132495 -2.261965
v 0.622077 -0.151922 -2.288615
v 0.622421 -0.155554 -2.212476
v 0.622613 -0.133096 -2.261636
v 0.621707 -0.062527 -2.165794
v 0.517205 -0.099581 -2.317455
v 0.517061 -0.121152 -2.355313
v 0.512187 -0.164033 -2.339452
v 0.513368 -0.134676 -2.288560
v 0.513633 -0.060366 -2.376756
v 0.517255 -0.046493 -2.361014
v 0.512625 -0.171347 -2.268039
v 0.497445 -0.144843 -2.343461
v 0.508729 -0.105746 -2.362161
v 0.496483 -0.118346 -2.301812
v 0.515264 -0.042501 -2.363485
v 0.518976 -0.117162 -2.359468
v 0.512586 -0.060455 -2.376490
v 0.506925 -0.098367 -2.317046
v 0.507092 -0.048974 -2.357596
v 0.490956 -0.145523 -2.341778
v 0.499047 -0.150040 -2.341536
v 0.497940 -0.169002 -2.267941
v 0.494427 -0.122879 -2.299593
v 0.507010 -0.217691 -2.282214
v 0.511166 -0.214175 -2.312057
v 0.624076 -0.120994 -2.355373
v 0.633860 -0.048130 -2.358281
v 0.628924 -0.060057 -2.376486
v 0.635416 -0.172375 -2.266947
v 0.631097 -0.216749 -2.281957
v 0.638139 -0.124668 -2.299760
v 0.648499 -0.122676 -2.298609
v 0.624409 -0.091133 -2.367026
v 0.650475 -0.145575 -2.341902
v 0.642303 -0.150035 -2.341461
v 0.630260 -0.214175 -2.312057
v 0.647080 -0.123344 -2.298696
v 0.624383 -0.121033 -2.355692
v 0.634335 -0.099445 -2.314861
v 0.642667 -0.215279 -2.280737
v 0.629226 -0.164033 -2.339452
v -0.608277 -0.347881 -2.212672
v -0.602338 -0.244031 -2.318472
v -0.611055 -0.249071 -2.205783
v -0.514874 -0.214888 -2.325862
v -0.515059 -0.214460 -2.170013
v -0.579161 -0.214539 -2.170120
v -0.579368 -0.214744 -2.325677
v -0.579160 -0.355984 -2.168996
v -0.579081 -0.349644 -2.317221
v -0.579055 -0.389601 -2.225710
v -0.515117 -0.389714 -2.225743
v -0.579106 -0.265476 -2.358820
v -0.611049 -0.349120 -2.185362
v -0.610994 -0.230223 -2.185755
v -0.611428 -0.230711 -2.317431
v -0.611487 -0.337304 -2.305692
v -0.611391 -0.372367 -2.226745
v -0.611300 -0.252871 -2.319283
v -0.611119 -0.266890 -2.340837
v -0.606098 -0.319468 -2.288044
v -0.602484 -0.260803 -2.310710
v -0.485800 -0.320378 -2.290332
v -0.483107 -0.348583 -2.185162
v -0.515063 -0.265447 -2.358881
v -0.483045 -0.233427 -2.322670
v -0.515093 -0.349404 -2.317533
v -0.483007 -0.337402 -2.305795
v -0.483025 -0.266574 -2.340759
v -0.515028 -0.356122 -2.168760
v -0.480920 -0.231104 -2.191966
v -0.485823 -0.348967 -2.212479
v -0.482834 -0.372323 -2.226467
v -0.531713 -0.358569 -2.344517
v -0.535071 -0.311829 -2.336519
v -0.564023 -0.389173 -2.259758
v -0.531140 -0.380071 -2.249815
v -0.562719 -0.374196 -2.247421
v -0.562857 -0.388853 -2.323215
v -0.562786 -0.359388 -2.344286
v -0.562808 -0.313419 -2.340024
v -0.531357 -0.388911 -2.323097
v -0.004843 -0.441133 2.029110
v -0.089582 -0.421600 2.010319
v -0.076288 -0.331951 2.029118
v 0.005025 -0.282179 2.029552
v -0.018612 -0.258438 2.005072
v -0.053854 -0.270299 2.005201
v -0.082648 -0.292812 2.005072
v -0.101523 -0.323078 2.005136
v -0.108116 -0.358110 2.005265
v -0.101494 -0.392220 2.005072
v -0.053649 -0.445372 2.005201
v -0.035255 -0.253452 2.005190
v -0.000424 -0.257446 1.793883
v -0.081485 -0.285804 1.793949
v -0.114652 -0.373444 2.005186
v -0.107936 -0.386840 1.793784
v -0.020620 -0.461103 2.004841
v -0.035840 -0.454045 1.793638
v 0.036513 -0.454767 1.793662
v -0.018729 -0.456903 1.793671
v -0.018586 -0.457152 2.005381
v 0.077209 -0.336060 2.029054
v 0.101391 -0.323195 2.005068
v 0.101748 -0.372387 1.997652
v 0.066542 -0.284820 1.996535
v 0.018419 -0.258881 2.004605
v 0.013886 -0.458397 2.006165
v 0.053562 -0.445460 2.005201
v 0.069967 -0.400003 2.028770
v 0.082735 -0.422662 2.005136
v 0.081909 -0.284512 1.793995
v 0.104384 -0.392652 1.793791
v 0.085217 -0.293047 2.005093
v 0.101111 -0.412287 2.004928
vn -0.8681 0.4599 0.1869
vn 0.9012 -0.1037 0.4208
vn -0.9028 -0.0860 0.4213
vn 0.0204 0.9296 -0.3679
vn -0.5570 0.1497 -0.8169
vn -0.6239 0.7642 -0.1634
vn -0.9128 -0.2322 -0.3360
vn -0.0073 0.2100 -0.9777
vn -0.0079 0.2094 -0.9778
vn 0.9861 -0.0990 -0.1337
vn 0.9061 -0.2468 -0.3436
vn 0.6926 -0.3930 -0.6048
vn 0.8902 -0.2628 -0.3721
vn -0.8001 -0.5823 0.1439
vn 0.7799 -0.6085 0.1464
vn 0.9495 0.3052 -0.0724
vn -0.9076 0.4080 -0.0995
vn -0.0068 -0.2022 0.9793
vn 0.1715 -0.0692 0.9828
vn -0.5957 0.4748 0.6478
vn 0.6646 0.4358 0.6069
vn 0.9898 -0.0859 0.1140
vn 0.0859 -0.3395 -0.9367
vn 0.0562 0.4396 -0.8964
vn 0.0347 0.9993 -0.0128
vn 0.2924 0.9423 0.1629
vn 0.9800 -0.0910 0.1772
vn 0.6452 0.7637 0.0202
vn -0.5730 -0.7530 -0.3235
vn -0.8761 -0.4735 0.0909
vn 0.6418 -0.6978 -0.3181
vn 0.8075 -0.5701 0.1511
vn 0.8934 0.4158 0.1705
vn -0.0065 -0.2025 0.9793
vn 0.9990 -0.0438 0.0054
vn -1.0000 0.0033 -0.0077
vn -0.9999 0.0032 -0.0106
vn 0.1727 -0.0693 0.9825
vn -0.5956 0.4748 0.6479
vn 0.9801 -0.0903 0.1768
vn 0.9898 -0.0853 0.1142
vn 0.6644 0.4358 0.6071
vn -0.9129 -0.2323 -0.3358
vn -0.0072 0.2100 -0.9777
vn -0.0078 0.2093 -0.9778
vn -0.8001 -0.5824 0.1440
vn 0.9010 -0.1037 0.4212
vn 0.7800 -0.6084 0.1465
vn -0.5729 -0.7531 -0.3235
vn -0.8762 -0.4732 0.0914
vn -0.8681 0.4599 0.1870
vn 0.6420 -0.6978 -0.3178
vn 0.8078 -0.5697 0.1516
vn -0.5572 0.1496 -0.8168
vn -0.6240 0.7642 -0.1634
vn 0.0860 -0.3396 -0.9366
vn 0.2946 0.9417 0.1625
vn 0.6489 0.7606 0.0194
vn 0.8906 -0.2626 -0.3714
vn -0.9026 -0.0861 0.4217
vn 0.9495 0.3055 -0.0717
vn -0.9075 0.4082 -0.0992
vn 0.9861 -0.0993 -0.1335
vn 0.9070 -0.2460 -0.3419
vn 0.6916 -0.3935 -0.6056
vn 0.8935 0.4155 0.1702
vn 0.9990 -0.0436 0.0055
vn -1.0000 0.0036 -0.0072
vn -0.9999 0.0034 -0.0102
vn -0.1859 -0.3812 -0.9056
vn -0.1603 -0.3607 -0.9188
vn 0.6981 -0.0786 -0.7116
vn -0.9949 0.0328 -0.0957
vn -0.6468 0.0697 0.7595
vn -0.9950 0.0588 -0.0811
vn 0.6707 0.7266 0.1489
vn -0.8338 0.5474 -0.0712
vn 0.8276 0.5582 -0.0593
vn 0.1046 0.6308 0.7689
vn 0.7671 0.1553 0.6225
vn 0.8715 0.3106 0.3795
vn 0.0349 0.5967 -0.8017
vn 0.5562 0.8104 -0.1841
vn 0.8356 -0.5489 0.0240
vn -0.7874 0.5105 -0.3455
vn 0.8611 0.4062 0.3058
vn 0.9582 -0.2297 0.1708
vn -0.6169 -0.7479 0.2453
vn -0.8312 -0.5559 -0.0047
vn 0.8392 0.2630 -0.4759
vn 0.9999 0.0100 -0.0024
vn 0.9999 0.0119 -0.0033
vn 0.7999 -0.5374 0.2671
vn 0.9935 -0.0575 -0.0979
vn 0.9482 0.2130 -0.2357
vn 0.8172 -0.4623 -0.3442
vn 0.9122 -0.0684 -0.4039
vn -0.0203 -0.9252 -0.3789
vn -0.0159 0.5331 -0.8459
vn 0.0508 -0.8480 -0.5276
vn 0.0375 0.6668 -0.7443
vn -0.0970 0.9530 -0.2871
vn 0.1987 0.1087 -0.9740
vn -0.8040 -0.1680 -0.5703
vn -0.0226 -0.6294 0.7768
vn -0.8110 0.4202 -0.4072
vn 0.0365 -0.7449 0.6662
vn 0.0629 -0.9689 -0.2394
vn 0.6402 -0.4177 -0.6447
vn 0.1623 0.8682 -0.4689
vn 0.8960 0.4026 0.1876
vn -0.0145 0.9073 -0.4203
vn -0.6226 0.7800 -0.0634
vn -0.6682 0.7403 -0.0739
vn 0.0324 0.9627 0.2686
vn 0.7568 -0.6474 0.0899
vn 0.3934 -0.8875 -0.2400
vn 0.6699 0.6281 0.3958
vn 0.5862 -0.1032 -0.8036
vn 0.1011 0.5850 0.8047
vn -0.9930 0.1013 -0.0606
vn -0.6617 -0.1448 -0.7357
vn -0.9967 0.0785 -0.0203
vn 0.2176 -0.9143 -0.3417
vn 0.0136 -0.9516 0.3071
vn 0.6519 0.0164 0.7581
vn -0.6164 -0.1042 -0.7805
vn -0.7197 0.3473 0.6012
vn 0.0835 -0.6488 -0.7564
vn -0.1963 -0.1462 -0.9696
vn 0.3755 -0.8187 0.4345
vn -0.9754 -0.0932 0.2000
vn 0.4393 0.3221 0.8386
vn -0.2513 -0.7689 -0.5879
vn 0.6594 -0.6140 0.4339
vn -0.0457 0.2943 0.9546
vn -0.9526 0.1059 0.2851
vn -0.5750 -0.6979 0.4270
vn 0.0006 0.9853 -0.1708
vn 0.0604 -0.9415 -0.3316
vn -0.4617 -0.8869 -0.0131
vn -0.8376 -0.4901 0.2410
vn 0.8220 0.1527 0.5486
vn -1.0000 -0.0066 0.0010
vn 0.1576 -0.3511 -0.9230
vn -0.6957 0.6544 0.2962
vn 1.0000 0.0049 -0.0029
vn 0.7100 -0.6402 -0.2935
vn 0.8120 -0.4907 0.3161
vn 0.9999 0.0101 -0.0023
vn 1.0000 0.0096 -0.0015
vn 1.0000 0.0088 -0.0008
vn -1.0000 -0.0054 0.0010
vn -1.0000 -0.0055 0.0008
vn -1.0000 -0.0074 0.0015
vn -1.0000 -0.0068 0.0012
vn -0.9985 -0.0478 0.0257
vn -0.5617 0.7275 -0.3940
vn 0.6493 -0.1586 -0.7438
vn -0.6356 -0.2045 -0.7445
vn 0.6226 -0.7003 -0.3492
vn -0.6236 -0.7179 0.3095
vn -0.6180 -0.6974 -0.3628
vn 0.2270 -0.7029 -0.6741
vn 0.8218 -0.5684 0.0395
vn 0.2276 -0.9721 0.0567
vn -0.2364 0.0588 -0.9699
vn -0.2264 -0.7050 -0.6721
vn -0.2339 -0.4733 0.8493
vn -0.2262 -0.9724 0.0580
vn -0.5284 0.1717 0.8315
vn 0.5292 0.8039 -0.2714
vn 0.8042 0.0241 -0.5939
vn 0.2364 0.0585 -0.9699
vn 0.2410 0.8559 -0.4577
vn 0.8273 0.4270 0.3650
vn 0.7894 0.4950 -0.3632
vn -0.9931 0.0408 0.1098
vn -0.7976 0.5274 -0.2926
vn -0.7911 0.0326 -0.6108
vn -0.9875 0.1122 0.1107
vn -0.9952 0.0806 -0.0557
vn -0.9985 0.0017 -0.0544
vn -0.9998 -0.0065 -0.0212
vn -0.8445 -0.3900 -0.3671
vn -0.4787 0.3419 0.8086
vn -0.8200 -0.5713 0.0364
vn -0.2365 0.8544 -0.4628
vn 0.9985 0.0360 0.0422
vn 0.9962 0.0716 -0.0502
vn -0.8103 -0.3101 0.4973
vn -0.7966 0.4295 0.4254
vn -0.2675 0.6843 0.6783
vn 0.6537 -0.1928 0.7318
vn 0.8100 -0.2942 0.5073
vn 0.2395 -0.4693 0.8499
vn 0.2915 0.6725 0.6803
vn 0.8333 -0.3991 -0.3824
vn -0.9891 -0.1378 0.0521
vn -0.6816 -0.7313 0.0247
vn -0.0683 -0.4801 0.8746
vn 0.0577 0.4059 0.9121
vn -0.2713 -0.1729 0.9468
vn 0.3643 -0.9313 -0.0086
vn 0.1164 -0.4895 0.8642
vn 0.0386 -0.9993 -0.0012
vn -0.6516 -0.1307 0.7472
vn -0.5893 -0.0297 0.8073
vn -0.2880 0.0731 0.9548
vn -0.6220 0.2430 0.7444
vn -0.4231 0.4234 0.8011
vn -0.2737 0.4751 0.8363
vn -0.2728 -0.6441 0.7146
vn 0.1058 -0.7236 0.6820
vn -0.1281 0.6473 0.7514
vn 0.2564 0.6339 0.7297
vn -0.9536 -0.3009 -0.0112
vn -0.7412 0.6705 -0.0305
vn -0.3087 0.9494 0.0575
vn 0.0240 0.9996 -0.0149
vn 0.9562 -0.2913 -0.0290
vn 0.7705 0.6367 0.0294
vn 0.8645 -0.5005 0.0459
vn 0.4198 0.1562 0.8941
vn 0.6060 0.2615 0.7512
vn 0.4167 0.5464 0.7265
vn 0.7421 -0.1178 0.6599
vn 0.4123 -0.2168 0.8849
vn 0.5807 -0.4077 0.7046
vn 0.3133 -0.5544 0.7710
vn 0.7372 0.6755 0.0158
vt 0.369141 0.548828
vt 0.381348 0.560547
vt 0.369141 0.560547
vt 0.354492 0.572266
vt 0.366455 0.560547
vt 0.366455 0.573730
vt 0.369141 0.587891
vt 0.381350 0.601055
vt 0.369141 0.601051
vt 0.384033 0.560547
vt 0.384521 0.550293
vt 0.384521 0.559082
vt 0.381348 0.587891
vt 0.369141 0.573730
vt 0.381348 0.573730
vt 0.381348 0.530273
vt 0.369141 0.530273
vt 0.366455 0.601038
vt 0.354492 0.589355
vt 0.366455 0.587891
vt 0.384033 0.587891
vt 0.381592 0.598633
vt 0.354237 0.559849
vt 0.354492 0.561523
vt 0.354084 0.574049
vt 0.354492 0.586426
vt 0.354004 0.587891
vt 0.384521 0.589355
vt 0.384521 0.598633
vt 0.384330 0.574917
vt 0.384521 0.586426
vt 0.366455 0.548828
vt 0.366455 0.530273
vt 0.354495 0.547349
vt 0.354492 0.530273
vt 0.381348 0.548828
vt 0.384101 0.548624
vt 0.354492 0.601067
vt 0.384507 0.601074
vt 0.384033 0.573730
vt 0.381348 0.601074
vt 0.384507 0.530273
vt 0.366455 0.601074
vt 0.366455 0.598633
vt 0.369141 0.599121
vt 0.366455 0.601038
vt 0.381350 0.601056
vt 0.369141 0.601051
vt 0.354495 0.547348
vt 0.384331 0.574923
vt 0.384103 0.548618
vt 0.354492 0.601067
vt 0.384507 0.601074
vt 0.384507 0.530273
vt 0.383789 0.374268
vt 0.376255 0.372560
vt 0.384766 0.373535
vt 0.384404 0.373806
vt 0.394531 0.383789
vt 0.383099 0.383414
vt 0.191175 0.434601
vt 0.213867 0.446777
vt 0.190308 0.446289
vt 0.365723 0.381104
vt 0.377441 0.384766
vt 0.364258 0.382324
vt 0.225034 0.492416
vt 0.234741 0.502441
vt 0.214111 0.505371
vt 0.210449 0.452148
vt 0.383057 0.360107
vt 0.376953 0.368652
vt 0.376953 0.360107
vt 0.190308 0.515137
vt 0.189087 0.504883
vt 0.173096 0.433350
vt 0.424805 0.567383
vt 0.423096 0.584473
vt 0.419189 0.582520
vt 0.364742 0.366454
vt 0.384269 0.396485
vt 0.383789 0.405762
vt 0.371357 0.406046
vt 0.396712 0.560850
vt 0.396706 0.552911
vt 0.419189 0.559784
vt 0.419189 0.551768
vt 0.179443 0.478271
vt 0.187812 0.475425
vt 0.191733 0.482628
vt 0.191895 0.517090
vt 0.170168 0.519527
vt 0.212646 0.515137
vt 0.193604 0.500000
vt 0.212402 0.480957
vt 0.213304 0.475894
vt 0.166260 0.502441
vt 0.178427 0.492318
vt 0.168335 0.502441
vt 0.236816 0.502441
vt 0.232892 0.519322
vt 0.179810 0.472656
vt 0.180786 0.458496
vt 0.169434 0.448486
vt 0.170776 0.448242
vt 0.172570 0.432473
vt 0.172363 0.432129
vt 0.386963 0.358643
vt 0.383789 0.369141
vt 0.387207 0.370117
vt 0.377686 0.382812
vt 0.384213 0.383609
vt 0.364280 0.382306
vt 0.374512 0.374756
vt 0.364990 0.376709
vt 0.398438 0.370605
vt 0.402454 0.377673
vt 0.395996 0.385986
vt 0.387207 0.386963
vt 0.387207 0.409912
vt 0.383773 0.420191
vt 0.383789 0.410889
vt 0.363770 0.417480
vt 0.364502 0.413574
vt 0.376966 0.411375
vt 0.384766 0.406494
vt 0.384277 0.396484
vt 0.398438 0.409424
vt 0.400879 0.402344
vt 0.395338 0.395029
vt 0.384017 0.395060
vt 0.377678 0.397188
vt 0.403061 0.402357
vt 0.376953 0.419678
vt 0.363770 0.362549
vt 0.376953 0.411377
vt 0.213415 0.474811
vt 0.396515 0.526420
vt 0.419158 0.526926
vt 0.210299 0.500000
vt 0.211426 0.482422
vt 0.396729 0.582520
vt 0.365638 0.398855
vt 0.364990 0.403320
vt 0.191772 0.469238
vt 0.395311 0.561185
vt 0.391113 0.567383
vt 0.377197 0.407715
vt 0.234538 0.449430
vt 0.223026 0.459028
vt 0.401769 0.415083
vt 0.395264 0.421387
vt 0.212769 0.436523
vt 0.232056 0.518066
vt 0.210938 0.500000
vt 0.194341 0.451903
vt 0.419189 0.562500
vt 0.423340 0.560059
vt 0.427246 0.563965
vt 0.211670 0.469482
vt 0.401771 0.364948
vt 0.395264 0.358643
vt 0.395264 0.584961
vt 0.392578 0.583496
vt 0.388672 0.564941
vt 0.390625 0.560547
vt 0.232178 0.433350
vt 0.505859 0.152352
vt 0.502930 0.147583
vt 0.505859 0.147583
vt 0.502930 0.143921
vt 0.505859 0.137573
vt 0.505859 0.143921
vt 0.422852 0.626465
vt 0.422363 0.637207
vt 0.418701 0.637695
vt 0.446289 0.620605
vt 0.439941 0.611328
vt 0.446289 0.611328
vt 0.439941 0.601562
vt 0.446289 0.594727
vt 0.446289 0.601562
vt 0.512695 0.140503
vt 0.503272 0.152603
vt 0.508799 0.150758
vt 0.432861 0.625488
vt 0.433105 0.621582
vt 0.439941 0.626465
vt 0.436420 0.640277
vt 0.436191 0.627856
vt 0.452148 0.627441
vt 0.449707 0.627930
vt 0.453369 0.625488
vt 0.458740 0.630859
vt 0.461542 0.638319
vt 0.452211 0.627504
vt 0.451483 0.639080
vt 0.460693 0.628906
vt 0.453125 0.628418
vt 0.510742 0.140137
vt 0.464111 0.637207
vt 0.463379 0.626465
vt 0.467529 0.637695
vt 0.446533 0.626465
vt 0.427344 0.630542
vt 0.424849 0.638384
vt 0.461670 0.641113
vt 0.462646 0.644531
vt 0.449707 0.640625
vt 0.446533 0.643066
vt 0.496644 0.140468
vt 0.424805 0.641113
vt 0.423584 0.644531
vt 0.439941 0.643066
vt 0.446289 0.656738
vt 0.439941 0.656738
vt 0.502930 0.136127
vt 0.425537 0.628906
vt 0.439941 0.620605
vt 0.439941 0.594727
vt 0.505859 0.135498
vt 0.453369 0.622070
vt 0.412265 0.783203
vt 0.423452 0.762207
vt 0.425286 0.783203
vt 0.361328 0.786133
vt 0.362305 0.801758
vt 0.352876 0.787233
vt 0.365496 0.762207
vt 0.359883 0.783206
vt 0.359863 0.762207
vt 0.350830 0.790527
vt 0.350342 0.794434
vt 0.354248 0.796875
vt 0.350830 0.797852
vt 0.353027 0.801270
vt 0.355957 0.803711
vt 0.356201 0.784668
vt 0.363281 0.783691
vt 0.359863 0.805176
vt 0.363770 0.804688
vt 0.413589 0.762207
vt 0.403122 0.762207
vt 0.359863 0.783203
vt 0.397871 0.783203
vt 0.394531 0.762207
vt 0.374727 0.762207
vt 0.385090 0.783203
vt 0.372997 0.783203
vt 0.369385 0.796387
vt 0.372559 0.797852
vt 0.369064 0.802455
vt 0.372967 0.792707
vt 0.368652 0.790039
vt 0.370605 0.787109
vt 0.367676 0.784668
vt 0.385804 0.762207
s 1
f 9/1/1 24/2/2 12/3/3
f 4/4/4 18/5/5 2/6/6
f 20/7/7 14/8/8 16/9/9
f 34/10/10 32/11/11 33/12/12
f 15/13/13 13/14/14 26/15/15
f 29/16/16 9/1/1 11/17/17
f 8/18/18 37/19/19 19/20/20
f 36/21/21 27/22/22 15/13/13
f 1/23/23 18/5/5 3/24/24
f 4/4/4 2/6/6 6/25/25
f 5/26/26 19/20/20 36/27/21
f 36/27/21 19/20/20 37/19/19
f 37/28/19 28/29/27 36/21/21
f 36/21/21 35/30/28 5/31/26
f 19/20/20 6/25/25 2/6/6
f 19/20/20 5/26/26 6/25/25
f 1/23/23 17/32/29 18/5/5
f 23/33/30 31/34/31 30/35/32
f 13/14/14 24/2/2 26/15/15
f 17/32/29 23/33/30 9/1/1
f 28/29/27 27/22/22 36/21/21
f 24/2/2 10/36/33 31/37/31
f 19/20/20 2/6/6 20/7/7
f 9/1/1 10/36/33 24/2/2
f 4/4/4 3/24/24 18/5/5
f 20/7/7 15/13/13 14/8/8
f 34/10/10 31/37/31 32/11/11
f 15/13/13 20/7/7 13/14/14
f 29/16/16 10/36/33 9/1/1
f 8/18/18 7/38/34 37/19/19
f 1/23/23 31/34/31 17/32/29
f 23/33/30 17/32/29 31/34/31
f 13/14/14 12/3/3 24/2/2
f 9/1/1 12/3/3 17/32/29
f 12/3/3 18/5/5 17/32/29
f 28/29/27 30/39/32 27/22/22
f 36/21/21 15/13/13 25/40/35
f 15/13/13 26/15/15 25/40/35
f 29/41/16 27/22/22 30/42/32
f 10/36/33 29/41/16 30/42/32
f 34/10/10 25/40/35 24/2/2
f 25/40/35 26/15/15 24/2/2
f 10/36/33 30/42/32 31/37/31
f 34/10/10 24/2/2 31/37/31
f 11/17/17 9/1/1 23/43/30
f 23/43/30 21/44/36 22/45/37
f 21/44/36 19/20/20 20/7/7
f 2/6/6 18/5/5 12/3/3
f 2/6/6 12/3/3 13/14/14
f 22/45/37 11/17/17 23/43/30
f 2/6/6 13/14/14 20/7/7
f 20/7/7 22/45/37 21/44/36
f 45/46/18 73/19/38 56/20/39
f 65/29/40 64/22/41 74/21/42
f 57/7/43 52/47/44 53/48/45
f 49/14/46 62/2/47 50/15/48
f 38/32/49 39/33/50 47/1/51
f 39/33/50 68/49/52 66/35/53
f 42/4/4 54/5/54 55/6/55
f 40/23/56 54/5/54 41/24/24
f 42/4/4 55/6/55 43/25/25
f 71/26/57 56/20/39 74/27/42
f 74/27/42 56/20/39 73/19/38
f 73/28/38 65/29/40 74/21/42
f 74/21/42 72/50/58 71/31/57
f 56/20/39 43/25/25 55/6/55
f 56/20/39 71/26/57 43/25/25
f 74/21/42 64/22/41 51/13/59
f 47/1/51 62/2/47 48/3/60
f 40/23/56 38/32/49 54/5/54
f 61/16/61 47/1/51 60/17/62
f 68/51/52 69/10/63 62/2/47
f 69/10/63 67/11/64 70/12/65
f 51/13/59 49/14/46 50/15/48
f 56/20/39 55/6/55 57/7/43
f 45/46/18 44/52/34 73/19/38
f 65/29/40 66/53/53 64/22/41
f 57/7/43 51/13/59 52/47/44
f 49/14/46 48/3/60 62/2/47
f 47/1/51 48/3/60 38/32/49
f 48/3/60 54/5/54 38/32/49
f 39/33/50 38/32/49 68/49/52
f 42/4/4 41/24/24 54/5/54
f 47/1/51 46/36/66 62/2/47
f 40/23/56 68/49/52 38/32/49
f 61/16/61 46/36/66 47/1/51
f 61/41/61 64/22/41 66/54/53
f 63/40/67 74/21/42 51/13/59
f 63/40/67 51/13/59 50/15/48
f 61/41/61 66/54/53 46/36/66
f 66/54/53 68/51/52 46/36/66
f 69/10/63 63/40/67 62/2/47
f 63/40/67 50/15/48 62/2/47
f 62/2/47 46/36/66 68/51/52
f 69/10/63 68/51/52 67/11/64
f 51/13/59 57/7/43 49/14/46
f 60/17/62 47/1/51 39/43/50
f 39/43/50 58/44/68 59/45/69
f 58/44/68 56/20/39 57/7/43
f 55/6/55 54/5/54 48/3/60
f 55/6/55 48/3/60 49/14/46
f 59/45/69 60/17/62 39/43/50
f 55/6/55 49/14/46 57/7/43
f 57/7/43 59/45/69 58/44/68
f 143/55/70 139/56/71 144/57/72
f 135/58/73 145/59/74 137/60/75
f 122/61/76 126/62/77 123/63/78
f 142/64/79 128/65/80 133/66/81
f 112/67/82 110/68/83 107/69/84
f 124/70/85 123/63/78 126/62/77
f 146/71/86 129/72/87 128/73/80
f 107/69/84 97/74/88 108/75/89
f 121/76/90 122/61/76 123/63/78
f 90/77/91 89/78/92 88/79/93
f 132/80/94 128/73/80 129/72/87
f 155/81/95 157/82/96 156/83/97
f 83/84/98 84/85/99 82/86/100
f 85/87/101 82/86/100 84/85/99
f 95/88/102 102/89/103 103/90/104
f 105/91/105 96/92/106 97/74/88
f 97/74/88 100/93/107 105/91/105
f 109/94/108 108/75/89 103/90/104
f 112/67/82 98/95/109 99/96/110
f 119/97/111 94/98/112 101/99/113
f 111/100/114 110/68/83 112/67/82
f 110/68/83 111/100/114 113/101/115
f 95/102/102 94/103/112 102/89/103
f 119/104/111 118/105/116 94/103/112
f 118/105/116 119/104/111 120/106/117
f 121/76/90 96/107/106 122/61/76
f 146/71/86 131/108/118 144/109/72
f 130/110/119 144/109/72 131/108/118
f 128/65/80 141/111/120 146/112/86
f 137/60/75 138/113/121 136/114/122
f 140/115/123 136/114/122 138/113/121
f 148/116/124 147/117/125 135/58/73
f 130/110/119 148/116/124 144/57/72
f 134/118/126 145/59/74 147/117/125
f 146/112/86 145/59/74 131/119/118
f 134/118/126 131/119/118 145/59/74
f 164/120/127 154/121/128 158/122/129
f 150/123/130 151/124/131 149/125/132
f 158/126/129 157/82/96 160/127/133
f 159/128/134 158/126/129 163/129/135
f 152/130/136 163/129/135 158/126/129
f 160/127/133 152/130/136 158/126/129
f 164/120/127 158/126/129 159/128/134
f 160/127/133 154/131/128 152/130/136
f 160/127/133 162/132/137 154/131/128
f 153/133/138 163/129/135 152/130/136
f 163/129/135 153/133/138 159/128/134
f 162/134/137 150/123/130 149/125/132
f 132/80/94 133/135/81 128/73/80
f 136/114/122 140/115/123 139/56/71
f 137/60/75 136/114/122 135/58/73
f 149/136/132 154/121/128 162/134/137
f 99/137/110 98/95/109 103/90/104
f 85/87/101 87/138/139 86/139/139
f 98/95/109 114/140/140 104/141/141
f 83/84/98 88/79/93 77/142/142
f 150/143/130 156/83/97 151/144/131
f 109/94/108 107/69/84 108/75/89
f 94/98/112 103/90/104 108/75/89
f 117/145/143 99/137/110 102/89/103
f 79/146/144 77/142/142 78/147/144
f 157/82/96 161/148/145 156/83/97
f 111/149/114 112/150/82 126/62/77
f 153/151/138 152/152/136 164/120/127
f 143/55/70 136/114/122 139/56/71
f 135/58/73 147/117/125 145/59/74
f 122/61/76 125/153/146 126/62/77
f 142/64/79 141/111/120 128/65/80
f 110/68/83 115/154/147 107/69/84
f 115/154/147 106/93/148 107/69/84
f 107/69/84 116/155/149 112/67/82
f 116/155/149 98/95/109 112/67/82
f 119/97/111 101/99/113 96/92/106
f 124/70/85 109/156/108 123/63/78
f 146/71/86 144/109/72 129/72/87
f 107/69/84 106/93/148 97/74/88
f 123/63/78 109/156/108 94/103/112
f 109/156/108 117/145/143 94/103/112
f 117/145/143 102/89/103 94/103/112
f 94/103/112 118/105/116 123/63/78
f 118/105/116 121/76/90 123/63/78
f 88/79/93 91/157/150 90/77/91
f 91/157/150 93/158/151 90/77/91
f 93/158/151 92/159/152 90/77/91
f 149/136/132 158/122/129 154/121/128
f 102/89/103 99/137/110 103/90/104
f 85/87/101 84/85/99 87/138/139
f 103/90/104 98/95/109 104/141/141
f 83/84/98 82/86/100 88/79/93
f 150/143/130 155/81/95 156/83/97
f 109/94/108 116/155/149 107/69/84
f 97/74/88 96/92/106 108/75/89
f 96/92/106 101/99/113 108/75/89
f 94/98/112 95/88/102 103/90/104
f 101/99/113 94/98/112 108/75/89
f 117/145/143 104/160/141 99/137/110
f 148/116/124 130/110/119 147/161/125
f 130/110/119 131/108/118 134/162/126
f 147/161/125 130/110/119 134/162/126
f 76/163/153 75/164/154 77/142/142
f 75/164/154 78/147/144 77/142/142
f 78/147/144 80/165/155 81/166/156
f 81/166/156 79/146/144 78/147/144
f 157/82/96 158/126/129 161/148/145
f 99/96/110 104/160/141 112/150/82
f 104/160/141 124/70/85 112/150/82
f 126/62/77 125/153/146 127/167/157
f 124/70/85 126/62/77 112/150/82
f 127/167/157 111/149/114 126/62/77
f 154/121/128 164/120/127 152/152/136
f 164/120/127 159/128/134 153/151/138
f 204/168/158 197/169/159 203/170/160
f 205/171/161 199/172/162 202/173/163
f 190/174/164 196/175/165 175/176/166
f 176/177/167 190/178/164 173/179/168
f 175/180/166 172/181/169 174/182/170
f 201/183/171 198/184/172 204/185/158
f 203/170/160 205/171/161 202/173/163
f 192/186/173 190/174/164 188/187/174
f 168/188/175 194/189/176 189/190/177
f 182/191/178 179/192/179 183/193/180
f 192/186/173 168/188/175 189/190/177
f 184/194/181 165/195/182 166/196/183
f 165/195/182 167/197/184 166/196/183
f 184/194/181 180/198/185 165/195/182
f 184/194/181 182/191/178 180/198/185
f 182/191/178 184/194/181 185/199/186
f 199/200/162 201/183/171 202/173/163
f 181/201/187 173/202/168 174/203/170
f 171/204/188 183/193/180 179/192/179
f 175/180/166 173/179/168 190/178/164
f 186/205/189 194/189/176 195/206/190
f 177/207/191 174/203/170 172/208/169
f 171/204/188 178/209/192 170/210/193
f 197/169/159 198/184/172 200/211/194
f 183/193/180 173/202/168 180/198/185
f 202/173/163 201/183/171 204/185/158
f 175/176/166 187/212/195 193/213/196
f 172/208/169 178/209/192 177/207/191
f 167/197/184 165/195/182 177/207/191
f 168/188/175 176/177/167 171/204/188
f 169/214/197 172/215/169 193/216/196
f 196/175/165 195/206/190 187/212/195
f 193/213/196 194/189/176 169/214/197
f 171/204/188 169/214/197 168/188/175
f 204/168/158 198/184/172 197/169/159
f 205/171/161 200/217/194 199/172/162
f 190/174/164 191/218/198 196/175/165
f 176/177/167 188/219/174 190/178/164
f 175/180/166 193/220/196 172/181/169
f 201/221/171 199/172/162 200/217/194
f 201/183/171 200/211/194 198/184/172
f 203/170/160 197/169/159 205/171/161
f 192/186/173 191/218/198 190/174/164
f 168/188/175 169/214/197 194/189/176
f 182/191/178 167/197/184 179/192/179
f 183/193/180 180/198/185 182/191/178
f 192/186/173 188/187/174 168/188/175
f 181/201/187 180/198/185 173/202/168
f 171/204/188 176/222/167 183/193/180
f 175/180/166 174/182/170 173/179/168
f 186/205/189 189/190/177 194/189/176
f 177/207/191 181/201/187 174/203/170
f 171/204/188 179/192/179 178/209/192
f 205/171/161 197/169/159 200/211/194
f 183/193/180 176/222/167 173/202/168
f 203/170/160 202/173/163 204/185/158
f 175/176/166 196/175/165 187/212/195
f 172/208/169 170/210/193 178/209/192
f 165/195/182 180/198/185 181/201/187
f 178/209/192 179/192/179 167/197/184
f 165/195/182 181/201/187 177/207/191
f 178/209/192 167/197/184 177/207/191
f 168/188/175 188/219/174 176/177/167
f 169/214/197 170/210/193 172/215/169
f 191/218/198 192/186/173 186/205/189
f 192/186/173 189/190/177 186/205/189
f 191/218/198 186/205/189 196/175/165
f 186/205/189 195/206/190 196/175/165
f 195/206/190 194/189/176 187/212/195
f 193/213/196 187/212/195 194/189/176
f 171/204/188 170/210/193 169/214/197
f 220/223/199 223/224/200 222/225/200
f 206/226/201 209/227/202 207/228/203
f 224/229/204 226/230/205 225/231/206
f 215/232/207 207/228/203 214/233/208
f 208/234/209 214/233/208 207/228/203
f 213/235/210 214/233/208 208/234/209
f 212/236/211 213/235/210 208/234/209
f 212/236/211 208/234/209 211/237/212
f 216/238/213 206/226/201 207/228/203
f 232/239/214 206/226/201 216/238/213
f 209/227/202 211/237/212 208/234/209
f 210/240/215 211/237/212 209/227/202
f 210/240/215 209/227/202 231/241/216
f 221/242/217 220/223/199 219/243/218
f 232/239/214 216/238/213 226/244/205
f 217/245/219 218/246/220 219/243/218
f 209/227/202 208/234/209 207/228/203
f 220/223/199 217/245/219 219/243/218
f 220/223/199 221/242/217 223/224/200
f 237/247/221 238/248/222 239/249/223
f 227/250/224 228/251/225 230/252/226
f 224/229/204 239/249/223 226/230/205
f 229/253/227 234/254/228 235/255/229
f 235/255/229 234/254/228 233/256/230
f 206/226/201 233/256/230 234/254/228
f 233/256/230 206/226/201 232/239/214
f 224/229/204 237/247/221 239/249/223
f 238/248/222 218/246/220 217/245/219
f 227/250/224 229/253/227 228/251/225
f 234/254/228 209/227/202 206/226/201
f 237/247/221 236/257/231 238/248/222
f 231/241/216 209/227/202 230/252/226
f 209/227/202 227/250/224 230/252/226
f 238/248/222 236/257/231 218/246/220
f 227/250/224 234/254/228 229/253/227
f 234/254/228 227/250/224 209/227/202
