# Blender 3.6.5
# www.blender.org
o glass
v 0.641866 0.570176 0.746304
v 0.636857 0.576267 0.938155
v 0.592324 0.664183 0.850120
v 0.591208 0.671330 0.671564
v 0.591750 0.673661 0.506909
v 0.644226 0.566745 0.536187
v 0.593058 0.672495 0.324661
v 0.645024 0.562963 0.327414
v 0.731952 0.343437 0.333055
v 0.730453 0.357423 0.594878
v 0.692109 0.457323 0.567547
v 0.724742 0.376158 0.892425
v 0.689812 0.463766 0.828631
v 0.684867 0.472166 1.042038
v 0.692140 0.451188 0.330301
v 0.720723 0.385790 1.044254
v 0.702253 0.431067 1.082866
v -0.641866 0.570176 0.746304
v -0.591208 0.671330 0.671564
v -0.592324 0.664183 0.850120
v -0.644226 0.566745 0.536187
v -0.593058 0.672495 0.324661
v -0.591750 0.673661 0.506909
v -0.731952 0.343437 0.333055
v -0.692140 0.451188 0.330301
v -0.692109 0.457323 0.567547
v -0.730453 0.357423 0.594878
v -0.689812 0.463766 0.828631
v -0.684867 0.472166 1.042038
v -0.702253 0.431067 1.082866
v -0.720723 0.385790 1.044254
v -0.636857 0.576267 0.938155
v -0.645024 0.562963 0.327414
v -0.724742 0.376158 0.892425
v 0.681837 0.429836 -0.071666
v 0.719447 0.318808 -0.099131
v 0.722510 0.335587 0.176189
v 0.596248 0.646349 0.178069
v 0.634752 0.551638 -0.039165
v 0.635996 0.559555 0.177465
v 0.683017 0.445075 0.176794
v 0.623587 0.532705 -0.500830
v 0.579309 0.653144 -0.398559
v 0.582499 0.639400 -0.463629
v 0.616058 0.532199 -0.612637
v 0.648597 0.387857 -0.790320
v 0.668598 0.397730 -0.571138
v 0.701487 0.286065 -0.625396
v 0.675106 0.408395 -0.407087
v 0.628914 0.539324 -0.345845
v 0.582595 0.670472 -0.008880
v 0.578799 0.663457 -0.290378
v 0.709909 0.296708 -0.455839
v 0.584062 0.672055 0.149597
v 0.681039 0.271794 -0.832088
v 0.653605 0.355971 -0.828798
v -0.681837 0.429836 -0.071666
v -0.683017 0.445075 0.176794
v -0.722510 0.335587 0.176189
v -0.582595 0.670472 -0.008880
v -0.584062 0.672055 0.149597
v -0.596248 0.646349 0.178069
v -0.634752 0.551638 -0.039165
v -0.623587 0.532705 -0.500830
v -0.616058 0.532199 -0.612637
v -0.582499 0.639400 -0.463629
v -0.668598 0.397730 -0.571138
v -0.648597 0.387857 -0.790320
v -0.681039 0.271794 -0.832088
v -0.653605 0.355971 -0.828798
v -0.719447 0.318808 -0.099131
v -0.709909 0.296708 -0.455839
v -0.675106 0.408395 -0.407087
v -0.628914 0.539324 -0.345845
v -0.578799 0.663457 -0.290378
v -0.701487 0.286065 -0.625396
v -0.579309 0.653144 -0.398559
v -0.635996 0.559555 0.177465
v 0.586582 0.244790 1.795678
v 0.521506 0.640544 1.281500
v -0.521506 0.640544 1.281500
v -0.586582 0.244790 1.795678
v 0.000000 0.616399 -0.654338
v 0.000000 0.719290 -0.512582
v -0.200398 0.715859 -0.511037
v -0.209138 0.613694 -0.651518
v -0.400923 0.705612 -0.506606
v -0.434290 0.491606 -0.787298
v -0.446157 0.370859 -0.935837
v -0.223334 0.373695 -0.950946
v -0.217305 0.497125 -0.799184
v 0.000000 0.374619 -0.955982
v -0.453941 0.266582 -1.057515
v -0.227289 0.266868 -1.075713
v -0.418245 0.605602 -0.643191
v -0.556756 0.596234 -0.634932
v 0.000000 0.498950 -0.803146
v -0.578894 0.484987 -0.775009
v -0.595897 0.367384 -0.919519
v -0.608083 0.266230 -1.037302
v -0.535255 0.694353 -0.501703
v 0.000000 0.616399 -0.654338
v 0.209138 0.613694 -0.651518
v 0.200398 0.715859 -0.511037
v 0.418245 0.605602 -0.643191
v 0.400923 0.705612 -0.506606
v 0.434290 0.491606 -0.787298
v 0.217305 0.497125 -0.799184
v 0.223334 0.373695 -0.950946
v 0.000000 0.498950 -0.803146
v 0.000000 0.374619 -0.955982
v 0.227289 0.266868 -1.075713
v 0.453941 0.266582 -1.057515
v 0.000000 0.266978 -1.081757
v 0.578894 0.484987 -0.775009
v 0.556756 0.596234 -0.634932
v 0.446157 0.370859 -0.935837
v 0.608083 0.266230 -1.037302
v 0.535255 0.694353 -0.501703
v 0.000000 0.266978 -1.081757
v 0.000000 0.719290 -0.512582
v 0.595897 0.367384 -0.919519
vn 0.8999 0.4360 0.0097
vn 0.9016 0.4326 0.0051
vn 0.8892 0.4575 0.0101
vn 0.8932 0.4496 0.0072
vn 0.9198 0.3924 0.0017
vn 0.9076 0.4199 0.0004
vn 0.8970 0.4419 0.0060
vn 0.9015 0.4328 -0.0017
vn 0.9127 0.4086 -0.0039
vn 0.9293 0.3691 -0.0073
vn 0.9256 0.3786 -0.0053
vn 0.9372 0.3488 -0.0101
vn 0.9337 0.3579 -0.0069
vn 0.9207 0.3904 0.0009
vn 0.9276 0.3736 0.0016
vn 0.9236 0.3833 -0.0022
vn 0.9236 0.3832 -0.0075
vn -0.8932 0.4496 0.0072
vn -0.9016 0.4326 0.0051
vn -0.8892 0.4575 0.0101
vn -0.8999 0.4360 0.0097
vn -0.9198 0.3924 0.0017
vn -0.9076 0.4199 0.0004
vn -0.8970 0.4419 0.0060
vn -0.9015 0.4328 -0.0017
vn -0.9127 0.4086 -0.0039
vn -0.9293 0.3691 -0.0073
vn -0.9256 0.3786 -0.0053
vn -0.9372 0.3488 -0.0101
vn -0.9337 0.3579 -0.0069
vn -0.9207 0.3904 0.0009
vn -0.9276 0.3736 0.0016
vn -0.9236 0.3833 -0.0022
vn -0.9236 0.3832 -0.0075
vn 0.9443 0.3270 -0.0366
vn 0.9372 0.3474 -0.0326
vn 0.9415 0.3361 -0.0267
vn 0.9334 0.3582 -0.0235
vn 0.9415 0.3335 -0.0491
vn 0.9218 0.3869 -0.0247
vn 0.9471 0.3161 -0.0556
vn 0.9169 0.3987 -0.0198
vn 0.9103 0.4137 -0.0168
vn 0.9136 0.4062 -0.0178
vn 0.9089 0.4169 -0.0126
vn 0.9203 0.3899 -0.0312
vn 0.9287 0.3687 -0.0403
vn 0.9240 0.3804 -0.0380
vn 0.9304 0.3621 -0.0567
vn 0.9278 0.3711 -0.0395
vn 0.9340 0.3487 -0.0780
vn 0.9410 0.3296 -0.0772
vn 0.9417 0.3169 -0.1126
vn 0.9441 0.3168 -0.0916
vn 0.9443 0.3067 -0.1189
vn 0.9404 0.3118 -0.1360
vn -0.9334 0.3582 -0.0235
vn -0.9372 0.3474 -0.0326
vn -0.9415 0.3361 -0.0267
vn -0.9443 0.3270 -0.0366
vn -0.9218 0.3869 -0.0247
vn -0.9169 0.3987 -0.0198
vn -0.9415 0.3335 -0.0491
vn -0.9103 0.4137 -0.0168
vn -0.9471 0.3161 -0.0556
vn -0.9136 0.4062 -0.0178
vn -0.9089 0.4169 -0.0126
vn -0.9203 0.3899 -0.0312
vn -0.9287 0.3687 -0.0403
vn -0.9240 0.3804 -0.0380
vn -0.9410 0.3296 -0.0772
vn -0.9304 0.3621 -0.0567
vn -0.9278 0.3711 -0.0395
vn -0.9340 0.3487 -0.0780
vn -0.9441 0.3168 -0.0916
vn -0.9417 0.3169 -0.1126
vn -0.9443 0.3067 -0.1189
vn -0.9404 0.3118 -0.1360
vn -0.0000 0.7925 0.6099
vn -0.0184 0.8092 -0.5873
vn -0.0184 0.7971 -0.6035
vn -0.0357 0.8093 -0.5863
vn -0.0365 0.7974 -0.6024
vn -0.0704 0.8091 -0.5834
vn -0.0181 0.7803 -0.6251
vn -0.0720 0.7976 -0.5988
vn -0.0892 0.8089 -0.5811
vn -0.0891 0.7968 -0.5976
vn -0.0361 0.7807 -0.6238
vn -0.0177 0.7677 -0.6405
vn -0.0712 0.7814 -0.6199
vn -0.0877 0.7817 -0.6175
vn -0.0355 0.7680 -0.6394
vn -0.0352 0.7597 -0.6494
vn -0.0177 0.7596 -0.6501
vn -0.0695 0.7596 -0.6467
vn -0.0701 0.7685 -0.6360
vn -0.0869 0.7689 -0.6334
vn -0.0870 0.7597 -0.6445
vn 0.0365 0.7974 -0.6024
vn 0.0184 0.7971 -0.6035
vn 0.0357 0.8093 -0.5863
vn 0.0184 0.8092 -0.5873
vn 0.0704 0.8091 -0.5834
vn 0.0181 0.7803 -0.6251
vn 0.0720 0.7976 -0.5988
vn 0.0892 0.8089 -0.5811
vn 0.0891 0.7968 -0.5976
vn 0.0361 0.7807 -0.6238
vn 0.0177 0.7677 -0.6405
vn 0.0712 0.7814 -0.6199
vn 0.0877 0.7817 -0.6175
vn 0.0355 0.7680 -0.6394
vn 0.0352 0.7597 -0.6494
vn 0.0177 0.7596 -0.6501
vn 0.0695 0.7596 -0.6467
vn 0.0701 0.7685 -0.6360
vn 0.0869 0.7689 -0.6334
vn 0.0870 0.7597 -0.6445
vt 0.196844 0.567376
vt 0.437364 0.565526
vt 0.304153 0.695037
vt 0.528021 0.707988
vt 0.071034 0.421214
vt 0.700086 0.565526
vt 0.733388 0.717238
vt 0.960957 0.720939
vt 0.962807 0.569226
vt 0.962807 0.415664
vt 0.664933 0.415664
vt 0.962807 0.273202
vt 0.635330 0.280603
vt 0.337456 0.415664
vt 0.261600 0.295404
vt 0.071034 0.304655
vt 0.021080 0.363859
vt 0.286992 0.307267
vt 0.257962 0.416474
vt 0.028489 0.314179
vt 0.024342 0.423386
vt 0.573142 0.409562
vt 0.223403 0.538122
vt 0.622908 0.301737
vt 0.021577 0.538122
vt 0.018812 0.627976
vt 0.192991 0.658388
vt 0.043695 0.655624
vt 0.455641 0.661153
vt 0.510936 0.538122
vt 0.556554 0.655624
vt 0.656084 0.538122
vt 0.617378 0.644565
vt 0.761144 0.545034
vt 0.726585 0.408180
vt 0.932558 0.413709
vt 0.781880 0.301737
vt 0.976794 0.303120
vt 0.969882 0.386062
vt 0.932758 0.773717
vt 0.067358 0.773717
vt 0.986693 0.235599
vt 0.013424 0.235599
vt 0.497681 0.796410
vt 0.497681 0.652061
vt 0.332886 0.795799
vt 0.325562 0.652367
vt 0.165649 0.793358
vt 0.497681 0.495201
vt 0.152222 0.653587
vt 0.054565 0.790916
vt 0.037476 0.654198
vt 0.318237 0.497032
vt 0.497681 0.332542
vt 0.138794 0.501915
vt 0.019165 0.506187
vt 0.313354 0.335289
vt 0.309692 0.199638
vt 0.497681 0.195747
vt 0.122925 0.211235
vt 0.129028 0.343681
vt 0.004517 0.352379
vt -0.005249 0.224052
vt 0.671021 0.652367
vt 0.663696 0.795799
vt 0.829712 0.793358
vt 0.844360 0.653587
vt 0.942017 0.790916
vt 0.959106 0.654198
vt 0.677124 0.497032
vt 0.857788 0.501915
vt 0.977417 0.506187
vt 0.683228 0.335289
vt 0.685669 0.199638
vt 0.873657 0.211235
vt 0.867554 0.343681
vt 0.990845 0.352379
vt 1.001831 0.224052
s 1
f 2/1/1 1/2/2 3/3/3
f 4/4/4 3/3/3 1/2/2
f 2/1/1 14/5/5 1/2/2
f 1/2/2 6/6/6 4/4/4
f 5/7/7 4/4/4 6/6/6
f 5/7/7 6/6/6 7/8/8
f 8/9/9 7/8/8 6/6/6
f 8/9/9 6/6/6 15/10/10
f 11/11/11 15/10/10 6/6/6
f 6/6/6 1/2/2 11/11/11
f 15/10/10 11/11/11 9/12/12
f 10/13/13 9/12/12 11/11/11
f 13/14/14 11/11/11 1/2/2
f 11/11/11 13/14/14 10/13/13
f 13/14/14 1/2/2 14/5/5
f 12/15/15 10/13/13 13/14/14
f 13/14/14 14/5/5 12/15/15
f 16/16/16 12/15/15 14/5/5
f 17/17/17 16/16/16 14/5/5
f 19/4/18 18/2/19 20/3/20
f 32/1/21 20/3/20 18/2/19
f 32/1/21 18/2/19 29/5/22
f 18/2/19 19/4/18 21/6/23
f 23/7/24 21/6/23 19/4/18
f 23/7/24 22/8/25 21/6/23
f 33/9/26 21/6/23 22/8/25
f 33/9/26 25/10/27 21/6/23
f 26/11/28 21/6/23 25/10/27
f 21/6/23 26/11/28 18/2/19
f 25/10/27 24/12/29 26/11/28
f 27/13/30 26/11/28 24/12/29
f 28/14/31 18/2/19 26/11/28
f 26/11/28 27/13/30 28/14/31
f 28/14/31 29/5/22 18/2/19
f 34/15/32 28/14/31 27/13/30
f 28/14/31 34/15/32 29/5/22
f 34/15/32 31/16/33 29/5/22
f 30/17/34 29/5/22 31/16/33
f 36/18/35 35/19/36 37/20/37
f 41/21/38 37/20/37 35/19/36
f 35/19/36 36/18/35 49/22/39
f 35/19/36 39/23/40 41/21/38
f 53/24/41 49/22/39 36/18/35
f 40/25/42 41/21/38 39/23/40
f 39/23/40 38/26/43 40/25/42
f 39/23/40 51/27/44 38/26/43
f 54/28/45 38/26/43 51/27/44
f 51/27/44 39/23/40 52/29/46
f 39/23/40 35/19/36 50/30/47
f 50/30/47 52/29/46 39/23/40
f 49/22/39 50/30/47 35/19/36
f 52/29/46 50/30/47 43/31/48
f 42/32/49 43/31/48 50/30/47
f 50/30/47 49/22/39 42/32/49
f 43/31/48 42/32/49 44/33/50
f 45/34/51 44/33/50 42/32/49
f 47/35/52 42/32/49 49/22/39
f 42/32/49 47/35/52 45/34/51
f 49/22/39 53/24/41 47/35/52
f 46/36/53 45/34/51 47/35/52
f 48/37/54 47/35/52 53/24/41
f 47/35/52 48/37/54 46/36/53
f 55/38/55 46/36/53 48/37/54
f 56/39/56 46/36/53 55/38/55
f 58/21/57 57/19/58 59/20/59
f 71/18/60 59/20/59 57/19/58
f 57/19/58 58/21/57 63/23/61
f 78/25/62 63/23/61 58/21/57
f 57/19/58 73/22/63 71/18/60
f 78/25/62 62/26/64 63/23/61
f 72/24/65 71/18/60 73/22/63
f 63/23/61 62/26/64 60/27/66
f 61/28/67 60/27/66 62/26/64
f 60/27/66 75/29/68 63/23/61
f 63/23/61 74/30/69 57/19/58
f 74/30/69 63/23/61 75/29/68
f 73/22/63 57/19/58 74/30/69
f 75/29/68 77/31/70 74/30/69
f 73/22/63 67/35/71 72/24/65
f 74/30/69 64/32/72 73/22/63
f 64/32/72 74/30/69 77/31/70
f 67/35/71 73/22/63 64/32/72
f 77/31/70 66/33/73 64/32/72
f 65/34/74 64/32/72 66/33/73
f 64/32/72 65/34/74 67/35/71
f 76/37/75 72/24/65 67/35/71
f 68/36/76 67/35/71 65/34/74
f 67/35/71 68/36/76 76/37/75
f 69/38/77 76/37/75 68/36/76
f 69/38/77 68/36/76 70/39/78
f 80/40/79 81/41/79 79/42/79
f 82/43/79 79/42/79 81/41/79
f 84/44/80 83/45/81 85/46/82
f 86/47/83 85/46/82 83/45/81
f 85/46/82 86/47/83 87/48/84
f 83/45/81 97/49/85 86/47/83
f 95/50/86 87/48/84 86/47/83
f 87/48/84 95/50/86 101/51/87
f 96/52/88 101/51/87 95/50/86
f 91/53/89 86/47/83 97/49/85
f 86/47/83 91/53/89 95/50/86
f 97/49/85 92/54/90 91/53/89
f 95/50/86 88/55/91 96/52/88
f 88/55/91 95/50/86 91/53/89
f 98/56/92 96/52/88 88/55/91
f 90/57/93 91/53/89 92/54/90
f 91/53/89 90/57/93 88/55/91
f 90/57/93 92/54/90 94/58/94
f 120/59/95 94/58/94 92/54/90
f 94/58/94 93/60/96 90/57/93
f 89/61/97 88/55/91 90/57/93
f 88/55/91 89/61/97 98/56/92
f 89/61/97 90/57/93 93/60/96
f 99/62/98 98/56/92 89/61/97
f 93/60/96 100/63/99 89/61/97
f 99/62/98 89/61/97 100/63/99
f 103/64/100 102/45/101 104/65/102
f 121/44/103 104/65/102 102/45/101
f 104/65/102 106/66/104 103/64/100
f 102/45/101 103/64/100 110/49/105
f 105/67/106 103/64/100 106/66/104
f 106/66/104 119/68/107 105/67/106
f 116/69/108 105/67/106 119/68/107
f 108/70/109 110/49/105 103/64/100
f 103/64/100 105/67/106 108/70/109
f 110/49/105 108/70/109 111/54/110
f 105/67/106 116/69/108 107/71/111
f 107/71/111 108/70/109 105/67/106
f 115/72/112 107/71/111 116/69/108
f 109/73/113 111/54/110 108/70/109
f 108/70/109 107/71/111 109/73/113
f 109/73/113 112/74/114 111/54/110
f 114/59/115 111/54/110 112/74/114
f 112/74/114 109/73/113 113/75/116
f 107/71/111 115/72/112 117/76/117
f 117/76/117 109/73/113 107/71/111
f 117/76/117 113/75/116 109/73/113
f 122/77/118 117/76/117 115/72/112
f 113/75/116 117/76/117 118/78/119
f 122/77/118 118/78/119 117/76/117
