# Blender 3.6.5
# www.blender.org
o wheel
v -0.337097 0.119660 -0.407055
v -0.341478 0.136446 -0.409484
v -0.348580 0.133788 -0.412369
v -0.346823 0.125121 -0.411614
v -0.348580 0.133788 -0.412369
v -0.348679 0.144133 -0.408227
v -0.352663 0.131258 -0.425326
v -0.270562 0.126316 -0.408985
v -0.268834 0.136988 -0.409434
v -0.348679 0.144133 -0.408227
v -0.346823 0.125121 -0.411614
v -0.333524 0.078517 -0.385428
v -0.339844 0.107656 -0.405025
v -0.339835 0.102239 -0.402592
v -0.341389 0.102160 -0.411567
v -0.347711 0.159126 -0.399394
v -0.352546 0.164797 -0.402586
v -0.353075 0.160809 -0.439855
v -0.347711 0.159126 -0.399394
v -0.339346 0.159285 -0.396954
v -0.345109 0.161867 -0.398939
v -0.349141 0.166230 -0.401303
v -0.350886 0.175933 -0.406487
v -0.345109 0.161867 -0.398939
v -0.333734 0.070395 -0.372310
v -0.340356 0.072571 -0.386295
v -0.340356 0.062962 -0.374100
v -0.350923 0.237857 -0.438574
v -0.352736 0.247672 -0.447456
v -0.332704 0.255630 -0.448080
v -0.343834 0.256087 -0.451444
v -0.343044 0.253793 -0.447130
v -0.349166 0.247752 -0.443969
v -0.345319 0.255421 -0.487314
v -0.352348 0.248651 -0.483944
v -0.334320 0.257768 -0.488477
v -0.276962 0.108210 -0.401746
v -0.267491 0.256493 -0.451634
v -0.276370 0.257768 -0.488477
v -0.348741 0.246003 -0.486824
v -0.341201 0.252920 -0.490296
v -0.261931 0.245991 -0.486808
v -0.352323 0.129123 -0.424325
v -0.349302 0.127659 -0.428082
v -0.353266 0.136896 -0.428005
v -0.340362 0.099153 -0.410040
v -0.338597 0.102236 -0.415684
v -0.345319 0.255421 -0.487314
v -0.351965 0.249046 -0.484140
v -0.353531 0.238192 -0.478739
v -0.334320 0.257768 -0.488477
v -0.277307 0.078112 -0.385006
v -0.277985 0.255630 -0.448080
v -0.272178 0.101627 -0.415366
v -0.334542 0.031578 -0.336599
v -0.276154 0.031578 -0.336599
v -0.276197 0.045244 -0.325482
v -0.334492 0.045244 -0.325482
v -0.340362 0.039784 -0.340968
v -0.340362 0.047925 -0.334385
v -0.334387 0.062858 -0.327212
v -0.340362 0.058609 -0.335484
v -0.334276 0.074978 -0.341013
v -0.340642 0.066338 -0.343915
v -0.334227 0.073827 -0.358955
v -0.334492 0.029988 -0.354182
v -0.340362 0.038874 -0.351426
v -0.340362 0.067928 -0.393120
v -0.340356 0.072571 -0.386295
v -0.337939 0.066229 -0.396300
v -0.340362 0.067928 -0.393120
v -0.272757 0.066229 -0.396300
v -0.340356 0.062962 -0.374100
v -0.340362 0.058609 -0.335484
v -0.340362 0.066174 -0.344011
v -0.340362 0.039784 -0.340968
v -0.340362 0.047925 -0.334385
v -0.340362 0.038874 -0.351426
v -0.271334 0.159293 -0.397095
v -0.261388 0.127659 -0.428082
v -0.263866 0.125121 -0.411614
v -0.262115 0.133788 -0.412369
v -0.262115 0.133788 -0.412369
v -0.258025 0.131329 -0.425360
v -0.262011 0.144133 -0.408227
v -0.262011 0.144133 -0.408227
v -0.263866 0.125121 -0.411614
v -0.270846 0.107656 -0.405025
v -0.269283 0.102255 -0.411617
v -0.270855 0.102238 -0.402592
v -0.258237 0.164342 -0.402634
v -0.262979 0.159126 -0.399394
v -0.257621 0.160809 -0.439855
v -0.262979 0.159126 -0.399394
v -0.265587 0.161867 -0.398939
v -0.259810 0.175933 -0.406487
v -0.261548 0.166230 -0.401303
v -0.265587 0.161867 -0.398939
v -0.276704 0.070889 -0.372662
v -0.270334 0.062962 -0.374100
v -0.270334 0.072571 -0.386295
v -0.257909 0.247520 -0.447123
v -0.259766 0.237857 -0.438574
v -0.267652 0.253793 -0.447130
v -0.261530 0.247752 -0.443969
v -0.258297 0.248596 -0.483917
v -0.265371 0.255421 -0.487314
v -0.270127 0.253254 -0.490456
v -0.258367 0.129123 -0.424325
v -0.257423 0.136896 -0.428005
v -0.270334 0.099153 -0.410040
v -0.265371 0.255421 -0.487314
v -0.258731 0.249046 -0.484140
v -0.257158 0.238192 -0.478739
v -0.276370 0.257768 -0.488477
v -0.276308 0.062858 -0.327212
v -0.276419 0.074978 -0.341013
v -0.276197 0.029988 -0.354182
v -0.270334 0.039784 -0.340968
v -0.270334 0.047925 -0.334385
v -0.270334 0.058609 -0.335484
v -0.270057 0.066336 -0.343921
v -0.270334 0.038874 -0.351426
v -0.270334 0.072571 -0.386295
v -0.270334 0.067928 -0.393120
v -0.270334 0.067928 -0.393120
v -0.270334 0.062962 -0.374100
v -0.270334 0.058609 -0.335484
v -0.270334 0.047925 -0.334385
v -0.270334 0.039784 -0.340968
v -0.270334 0.066174 -0.344011
v -0.270334 0.038874 -0.351426
v -0.107836 0.227337 -0.440164
v -0.113034 0.232627 -0.429079
v -0.115494 0.261353 -0.458161
v -0.120488 0.265755 -0.446601
v -0.126998 0.245230 -0.429949
v -0.138121 0.230446 -0.427922
v -0.144613 0.259286 -0.443179
v -0.143319 0.224251 -0.438530
v -0.149607 0.252209 -0.453321
v -0.138121 0.218961 -0.449622
v -0.144613 0.247807 -0.464882
v -0.125580 0.217678 -0.454695
v -0.132554 0.248662 -0.471089
v -0.125580 0.217678 -0.454695
v -0.113034 0.221143 -0.450778
v -0.132554 0.248662 -0.471089
v -0.120488 0.254276 -0.468304
v -0.130507 0.293389 -0.475110
v -0.135106 0.296952 -0.463107
v -0.152302 0.322224 -0.490367
v -0.156340 0.325042 -0.477968
v -0.157964 0.311285 -0.464800
v -0.157339 0.286449 -0.457550
v -0.175829 0.310904 -0.470486
v -0.161945 0.278533 -0.467252
v -0.179861 0.302237 -0.479791
v -0.157339 0.274970 -0.479252
v -0.175829 0.299419 -0.492189
v -0.146223 0.277842 -0.486527
v -0.166082 0.304112 -0.500423
v -0.146223 0.277842 -0.486527
v -0.135106 0.285473 -0.484809
v -0.166082 0.304112 -0.500423
v -0.156340 0.313557 -0.499671
v -0.180040 0.346745 -0.503339
v -0.183351 0.348916 -0.490599
v -0.212668 0.366014 -0.513532
v -0.215128 0.367686 -0.500528
v -0.205001 0.352455 -0.486738
v -0.199344 0.331691 -0.481486
v -0.227009 0.348033 -0.490131
v -0.202655 0.322383 -0.490449
v -0.229469 0.338220 -0.498830
v -0.199344 0.320212 -0.503189
v -0.227009 0.336548 -0.511834
v -0.191348 0.326445 -0.512241
v -0.221072 0.343998 -0.521527
v -0.191348 0.326445 -0.512241
v -0.183351 0.337436 -0.512302
v -0.221072 0.343998 -0.521527
v -0.215128 0.356201 -0.522231
v -0.248909 0.379280 -0.520552
v -0.250419 0.380607 -0.507366
v -0.287388 0.386045 -0.524133
v -0.287900 0.387196 -0.510852
v -0.266437 0.375507 -0.498872
v -0.257738 0.359282 -0.496083
v -0.290372 0.365022 -0.499120
v -0.259255 0.349124 -0.504597
v -0.290884 0.354688 -0.507541
v -0.257738 0.347803 -0.517786
v -0.290372 0.353537 -0.520822
v -0.254082 0.356086 -0.527922
v -0.289139 0.362248 -0.531181
v -0.254082 0.356086 -0.527922
v -0.250419 0.369122 -0.529069
v -0.289139 0.362248 -0.531181
v -0.287900 0.375711 -0.532555
v -0.287388 0.033962 -0.337858
v -0.306964 0.042905 -0.328377
v -0.307000 0.033425 -0.337571
v -0.248909 0.040732 -0.341436
v -0.250419 0.050885 -0.332922
v -0.307000 0.057277 -0.330548
v -0.306966 0.065035 -0.340723
v -0.257738 0.072210 -0.344202
v -0.306980 0.064302 -0.353907
v -0.259255 0.070883 -0.357391
v -0.306981 0.053420 -0.362255
v -0.257738 0.060731 -0.365905
v -0.289139 0.041527 -0.361498
v -0.307000 0.041034 -0.361240
v -0.254082 0.047689 -0.364761
v -0.307000 0.041034 -0.361240
v -0.289139 0.041527 -0.361498
v -0.306970 0.031199 -0.350167
v -0.254082 0.047689 -0.364761
v -0.250419 0.039406 -0.354625
v -0.212668 0.053999 -0.348456
v -0.215128 0.063811 -0.339757
v -0.180040 0.073268 -0.358649
v -0.183351 0.082576 -0.349686
v -0.236143 0.068155 -0.336358
v -0.227009 0.083464 -0.350154
v -0.199344 0.099800 -0.358799
v -0.229469 0.081792 -0.363161
v -0.202655 0.097629 -0.371538
v -0.227009 0.071979 -0.371857
v -0.199344 0.088321 -0.380502
v -0.221072 0.059777 -0.371153
v -0.191348 0.077330 -0.380441
v -0.221072 0.059777 -0.371153
v -0.215128 0.052327 -0.361460
v -0.191348 0.077330 -0.380441
v -0.183351 0.071091 -0.371389
v -0.152302 0.097783 -0.371621
v -0.156340 0.106455 -0.362320
v -0.130507 0.126623 -0.386878
v -0.135106 0.134539 -0.377178
v -0.153291 0.130181 -0.369102
v -0.175829 0.120588 -0.369799
v -0.157339 0.145043 -0.382736
v -0.179861 0.117775 -0.382200
v -0.161945 0.141479 -0.394739
v -0.175829 0.109109 -0.391501
v -0.157339 0.133558 -0.404438
v -0.166082 0.099663 -0.392257
v -0.146223 0.125933 -0.406156
v -0.166082 0.099663 -0.392257
v -0.156340 0.094971 -0.384023
v -0.146223 0.125933 -0.406156
v -0.135106 0.123055 -0.398881
v -0.115494 0.158654 -0.403827
v -0.120488 0.165737 -0.393684
v -0.107836 0.192670 -0.421823
v -0.113034 0.198864 -0.411213
v -0.127421 0.187580 -0.399424
v -0.144613 0.172206 -0.397106
v -0.138121 0.201052 -0.412369
v -0.149607 0.167804 -0.408667
v -0.143319 0.195761 -0.423458
v -0.144613 0.160721 -0.418809
v -0.138121 0.189567 -0.434066
v -0.132554 0.155113 -0.421594
v -0.125580 0.186097 -0.437985
v -0.132554 0.155113 -0.421594
v -0.120488 0.154252 -0.415387
v -0.125580 0.186097 -0.437985
v -0.113034 0.187385 -0.432912
v -0.500967 0.232627 -0.429079
v -0.506164 0.227337 -0.440164
v -0.493513 0.265755 -0.446601
v -0.498507 0.261353 -0.458161
v -0.487002 0.245230 -0.429949
v -0.475879 0.230446 -0.427922
v -0.469387 0.259286 -0.443179
v -0.470682 0.224251 -0.438530
v -0.464393 0.252209 -0.453321
v -0.475879 0.218961 -0.449622
v -0.469387 0.247807 -0.464882
v -0.488420 0.217678 -0.454695
v -0.481447 0.248662 -0.471089
v -0.500967 0.221143 -0.450778
v -0.488420 0.217678 -0.454695
v -0.493513 0.254276 -0.468304
v -0.481447 0.248662 -0.471089
v -0.478888 0.296952 -0.463107
v -0.483494 0.293389 -0.475110
v -0.457660 0.325042 -0.477968
v -0.461699 0.322224 -0.490367
v -0.456036 0.311285 -0.464800
v -0.456655 0.286449 -0.457550
v -0.438171 0.310904 -0.470486
v -0.452056 0.278533 -0.467252
v -0.434139 0.302237 -0.479791
v -0.456655 0.274970 -0.479252
v -0.438171 0.299419 -0.492189
v -0.467772 0.277842 -0.486527
v -0.447919 0.304112 -0.500423
v -0.478888 0.285473 -0.484809
v -0.467772 0.277842 -0.486527
v -0.457660 0.313557 -0.499671
v -0.447919 0.304112 -0.500423
v -0.430649 0.348916 -0.490599
v -0.433960 0.346745 -0.503339
v -0.398872 0.367686 -0.500528
v -0.401332 0.366014 -0.513532
v -0.408999 0.352455 -0.486738
v -0.414656 0.331691 -0.481486
v -0.386991 0.348033 -0.490131
v -0.411339 0.322383 -0.490449
v -0.384531 0.338220 -0.498830
v -0.414656 0.320212 -0.503189
v -0.386991 0.336548 -0.511834
v -0.422653 0.326445 -0.512241
v -0.392929 0.343998 -0.521527
v -0.430649 0.337436 -0.512302
v -0.422653 0.326445 -0.512241
v -0.398872 0.356201 -0.522231
v -0.392929 0.343998 -0.521527
v -0.363581 0.380607 -0.507366
v -0.365092 0.379280 -0.520552
v -0.326101 0.387196 -0.510852
v -0.326613 0.386045 -0.524133
v -0.347563 0.375507 -0.498872
v -0.356263 0.359282 -0.496083
v -0.323629 0.365022 -0.499120
v -0.354746 0.349124 -0.504597
v -0.323117 0.354688 -0.507541
v -0.356263 0.347803 -0.517786
v -0.323629 0.353537 -0.520822
v -0.359919 0.356086 -0.527922
v -0.324862 0.362248 -0.531181
v -0.363581 0.369122 -0.529069
v -0.359919 0.356086 -0.527922
v -0.326101 0.375711 -0.532555
v -0.324862 0.362248 -0.531181
v -0.307036 0.042905 -0.328377
v -0.326613 0.033962 -0.337858
v -0.307000 0.033425 -0.337571
v -0.363581 0.050885 -0.332922
v -0.365092 0.040732 -0.341436
v -0.307000 0.057277 -0.330548
v -0.377857 0.068155 -0.336358
v -0.307034 0.065035 -0.340723
v -0.356263 0.072210 -0.344202
v -0.307020 0.064302 -0.353907
v -0.354746 0.070883 -0.357391
v -0.307019 0.053420 -0.362255
v -0.356263 0.060731 -0.365905
v -0.307000 0.041034 -0.361240
v -0.324862 0.041527 -0.361498
v -0.359919 0.047689 -0.364761
v -0.307000 0.041034 -0.361240
v -0.307030 0.031199 -0.350167
v -0.324862 0.041527 -0.361498
v -0.363581 0.039406 -0.354625
v -0.359919 0.047689 -0.364761
v -0.398872 0.063811 -0.339757
v -0.401332 0.053999 -0.348456
v -0.444962 0.093986 -0.355181
v -0.433960 0.073268 -0.358649
v -0.386991 0.083464 -0.350154
v -0.427245 0.109431 -0.363923
v -0.384531 0.081792 -0.363161
v -0.411339 0.097629 -0.371538
v -0.386991 0.071979 -0.371857
v -0.427485 0.097791 -0.385364
v -0.392929 0.059777 -0.371153
v -0.422653 0.077330 -0.380441
v -0.398872 0.052327 -0.361460
v -0.392929 0.059777 -0.371153
v -0.445466 0.081885 -0.376980
v -0.422653 0.077330 -0.380441
v -0.448258 0.085147 -0.364936
v -0.435674 0.104389 -0.355473
v -0.423090 0.107387 -0.376704
v -0.435674 0.088151 -0.386164
v -0.435674 0.088151 -0.386164
v -0.506164 0.192670 -0.421823
v -0.500967 0.198864 -0.411213
v -0.488420 0.202334 -0.407297
v -0.475879 0.201052 -0.412369
v -0.470682 0.195761 -0.423458
v -0.475879 0.189567 -0.434066
v -0.488420 0.186097 -0.437985
v -0.500967 0.187385 -0.432912
v -0.488420 0.186097 -0.437985
v -0.350886 0.175933 -0.406487
v -0.348600 0.166929 -0.406504
v -0.348591 0.243533 -0.446150
v -0.350923 0.237857 -0.438574
v -0.339277 0.159296 -0.397536
v -0.340924 0.159363 -0.402423
v -0.345109 0.161867 -0.398939
v -0.349141 0.166230 -0.401303
v -0.332704 0.255630 -0.448080
v -0.340799 0.251157 -0.450518
v -0.270377 0.251454 -0.450686
v -0.277985 0.255630 -0.448080
v -0.343044 0.253793 -0.447130
v -0.349166 0.247752 -0.443969
v -0.271413 0.159296 -0.397536
v -0.265587 0.161867 -0.398939
v -0.269298 0.159687 -0.402596
v -0.259810 0.175933 -0.406487
v -0.262091 0.166936 -0.406506
v -0.261548 0.166230 -0.401303
v -0.259766 0.237857 -0.438574
v -0.262103 0.243536 -0.446156
v -0.267652 0.253793 -0.447130
v -0.261530 0.247752 -0.443969
v -0.341973 0.179493 -0.398320
v -0.341772 0.244319 -0.432166
v -0.336281 0.173278 -0.394898
v -0.335745 0.251713 -0.436272
v -0.274871 0.250715 -0.435554
v -0.274864 0.172996 -0.394710
v -0.268716 0.179498 -0.398332
v -0.268920 0.244311 -0.432162
v -0.335106 0.250044 -0.435402
v -0.341064 0.170320 -0.415232
v -0.341182 0.235512 -0.449008
v -0.335820 0.164843 -0.412197
v -0.274970 0.164781 -0.411967
v -0.269632 0.170323 -0.415234
v -0.269510 0.235505 -0.449002
v -0.275592 0.240045 -0.453027
v -0.334933 0.241490 -0.452239
v -0.337954 0.167252 -0.415822
v -0.273031 0.166774 -0.415597
v -0.271549 0.233706 -0.450493
v -0.337979 0.237174 -0.452423
v -0.278614 0.226411 -0.446467
v -0.277301 0.227814 -0.447203
v -0.276604 0.229530 -0.448102
v -0.276617 0.231356 -0.449058
v -0.277332 0.233066 -0.449950
v -0.278664 0.234458 -0.450680
v -0.280452 0.235363 -0.451151
v -0.282480 0.235670 -0.451307
v -0.284502 0.235346 -0.451135
v -0.286278 0.234426 -0.450654
v -0.287597 0.233028 -0.449918
v -0.288288 0.231306 -0.449020
v -0.288276 0.229486 -0.448064
v -0.287567 0.227770 -0.447168
v -0.286235 0.226378 -0.446442
v -0.284447 0.225474 -0.445970
v -0.282418 0.225167 -0.445811
v -0.280390 0.225490 -0.445983
v -0.276715 0.208868 -0.433744
v -0.276086 0.210163 -0.434394
v -0.276193 0.211541 -0.435174
v -0.277558 0.212979 -0.435856
v -0.279083 0.213293 -0.436025
v -0.280615 0.212953 -0.435850
v -0.281949 0.211534 -0.435109
v -0.281939 0.209693 -0.434104
v -0.280586 0.208261 -0.433399
v -0.278513 0.207956 -0.433216
v -0.294858 0.182976 -0.420089
v -0.293979 0.183789 -0.420533
v -0.293616 0.184880 -0.421126
v -0.294210 0.186297 -0.421876
v -0.295683 0.187034 -0.422278
v -0.297360 0.186777 -0.422138
v -0.298457 0.185607 -0.421540
v -0.298535 0.184480 -0.420925
v -0.298023 0.183440 -0.420388
v -0.296543 0.182684 -0.419983
v -0.316335 0.174689 -0.415683
v -0.315587 0.175593 -0.416154
v -0.315509 0.176728 -0.416779
v -0.316034 0.177770 -0.417327
v -0.317106 0.178384 -0.417662
v -0.318390 0.178497 -0.417737
v -0.319861 0.177748 -0.417294
v -0.320423 0.176336 -0.416533
v -0.320053 0.175248 -0.415967
v -0.319160 0.174433 -0.415522
v -0.317474 0.174180 -0.415399
v -0.328378 0.227720 -0.443721
v -0.327858 0.228774 -0.444262
v -0.327947 0.229909 -0.444889
v -0.329052 0.231048 -0.445509
v -0.330732 0.231318 -0.445615
v -0.332190 0.230571 -0.445214
v -0.332710 0.229514 -0.444680
v -0.332623 0.228369 -0.444077
v -0.331860 0.227469 -0.443593
v -0.330715 0.226965 -0.443334
v -0.329437 0.227102 -0.443386
vn -0.6167 -0.1001 0.7808
vn -0.4227 0.2501 0.8711
vn -0.8256 0.0642 0.5606
vn -0.3832 0.0639 0.9215
vn -0.6429 0.2797 0.7131
vn -0.1923 0.2473 0.9497
vn -0.3190 -0.4364 0.8413
vn -0.1860 -0.2231 0.9569
vn -0.2770 -0.2898 0.9161
vn -0.4714 0.7795 -0.4125
vn -0.4365 0.1306 -0.8902
vn -0.3242 0.1968 -0.9253
vn -0.2803 0.1075 0.9539
vn -0.1320 -0.4072 0.9038
vn 0.1257 -0.4101 0.9034
vn 0.1735 -0.2537 0.9516
vn 0.2621 -0.2956 0.9187
vn 0.2659 0.0935 0.9594
vn 0.3094 -0.4381 0.8440
vn 0.3838 0.0751 0.9204
vn 0.2102 0.1356 0.9682
vn 0.4644 0.2848 0.8386
vn 0.2194 0.3944 0.8924
vn -0.2954 0.6277 0.7203
vn -0.6110 0.5686 0.5508
vn 0.3402 -0.1390 0.9300
vn -0.1765 0.9304 0.3213
vn -0.2731 0.8503 -0.4498
vn -0.0023 0.4655 0.8850
vn 0.0033 0.4663 0.8846
vn 0.0066 0.4647 0.8854
vn -0.4658 0.8691 0.1665
vn -0.8819 0.4166 -0.2204
vn -0.6710 0.5229 0.5256
vn -0.9569 0.2566 -0.1358
vn -0.7558 0.6319 0.1717
vn -0.8309 0.5307 0.1671
vn 0.2943 0.6479 0.7026
vn 0.4634 0.8643 0.1956
vn 0.6147 0.5703 0.5449
vn 0.7835 0.6010 0.1575
vn 0.8240 0.5440 0.1583
vn -0.4909 0.8560 -0.1618
vn 0.2771 -0.8493 0.4493
vn 0.0638 -0.9622 -0.2648
vn 0.1983 -0.9344 -0.2960
vn 0.4229 0.8659 0.2671
vn -0.7338 -0.3115 -0.6037
vn -0.4148 -0.2284 -0.8808
vn -0.4653 -0.4809 -0.7431
vn -0.0286 0.5052 0.8625
vn -0.2137 0.9259 0.3116
vn -0.3223 0.8843 0.3379
vn 0.9646 -0.1331 0.2275
vn 0.9351 -0.1474 0.3224
vn 0.9349 -0.2033 0.2907
vn -0.4342 0.4096 0.8023
vn -0.8412 0.2328 0.4880
vn -0.5350 -0.0688 0.8420
vn -0.6345 -0.6833 0.3614
vn -0.7730 -0.5607 0.2967
vn 0.3373 0.9414 0.0027
vn 0.4095 0.7116 0.5709
vn 0.8617 0.4376 0.2567
vn -0.0301 0.4859 0.8735
vn -0.0376 0.4724 0.8806
vn 0.6493 0.0324 0.7598
vn -0.6958 0.2845 0.6595
vn -0.9569 -0.2566 0.1358
vn -0.9952 -0.0866 0.0459
vn 0.0111 -0.7476 -0.6640
vn 0.0553 -0.7763 -0.6280
vn 0.2913 0.4147 0.8621
vn -0.2254 0.8536 0.4697
vn 0.0937 0.2060 0.9741
vn 0.6816 -0.5110 -0.5238
vn 0.3578 -0.5296 -0.7690
vn 0.3723 -0.4661 -0.8026
vn 0.8387 -0.3188 -0.4414
vn 0.4512 -0.5647 -0.6910
vn 0.3817 -0.5026 -0.7757
vn -0.4454 0.2889 -0.8474
vn -0.1894 0.0771 -0.9789
vn 0.9569 0.2566 -0.1357
vn 0.7042 0.3849 0.5966
vn 0.9952 0.0867 -0.0458
vn -0.4689 -0.8139 -0.3431
vn -0.2400 -0.6635 -0.7086
vn -0.2385 -0.7092 -0.6634
vn -0.4306 -0.8628 -0.2650
vn -0.8227 -0.3888 -0.4147
vn -0.4512 -0.5647 -0.6910
vn -0.2373 -0.1780 -0.9550
vn -0.5506 0.0711 -0.8318
vn -0.4519 0.1585 -0.8779
vn 0.4307 -0.8627 -0.2650
vn 0.8227 -0.3888 -0.4147
vn 0.8457 -0.5169 -0.1325
vn 0.8455 -0.1504 0.5124
vn 0.4342 0.4097 0.8022
vn 0.4397 -0.2576 0.8604
vn 0.7773 -0.4221 -0.4666
vn 0.4650 -0.4799 -0.7440
vn 0.7339 -0.3115 -0.6036
vn -0.7762 -0.4237 -0.4668
vn 0.4779 0.7788 -0.4064
vn 0.1765 0.9304 0.3213
vn 0.2731 0.8503 -0.4498
vn 0.5402 0.7334 0.4126
vn 0.6344 0.6833 -0.3615
vn 0.4534 0.8075 0.3773
vn -0.6846 -0.2798 -0.6730
vn -0.6583 -0.1628 -0.7349
vn 0.4148 -0.2277 -0.8810
vn 0.6319 -0.3359 -0.6985
vn -0.0256 0.3095 0.9505
vn 0.3119 -0.5682 0.7615
vn 0.2443 -0.1212 0.9621
vn 0.4475 0.2782 -0.8499
vn 0.1801 0.0998 -0.9786
vn -0.6816 -0.1454 -0.7171
vn -0.3580 -0.3377 -0.8705
vn -0.3721 -0.4013 -0.8369
vn -0.3737 -0.5042 -0.7785
vn -0.8440 -0.3110 -0.4369
vn 0.2891 -0.2240 -0.9307
vn 0.2374 -0.1780 -0.9550
vn 0.4519 0.1585 -0.8779
vn -0.0132 0.5669 0.8237
vn -0.3007 0.4151 0.8586
vn -0.0171 0.3702 0.9288
vn -0.3104 -0.3555 0.8816
vn -0.8682 -0.1416 0.4755
vn -0.8728 -0.2551 0.4161
vn -0.9643 -0.1339 0.2285
vn -0.9347 -0.1475 0.3233
vn -0.0638 -0.9622 -0.2648
vn -0.0310 -0.8830 0.4684
vn -0.1616 -0.8733 0.4596
vn -0.9999 0.0117 0.0110
vn -1.0000 0.0001 -0.0000
vn -1.0000 0.0006 0.0003
vn -0.8819 -0.4168 0.2204
vn 0.6150 -0.0977 0.7825
vn 0.4622 0.2417 0.8532
vn 0.3474 0.1774 0.9208
vn -0.9999 0.0003 0.0112
vn -0.7212 0.3215 0.6136
vn 0.9999 0.0006 0.0133
vn 0.8468 0.4565 0.2730
vn 0.8366 0.0478 0.5457
vn -0.8594 0.2467 0.4479
vn -0.8510 0.4553 0.2619
vn 0.5407 0.6136 0.5755
vn 0.8386 0.2615 0.4778
vn -0.9952 0.0866 -0.0459
vn -0.3282 0.8081 0.4892
vn -0.0190 0.9800 0.1979
vn -0.3577 0.9087 0.2153
vn 0.5346 -0.0652 0.8426
vn 0.8819 -0.4167 0.2206
vn 0.6275 0.0452 0.7773
vn 0.3381 0.8002 0.4953
vn 0.3427 0.9134 0.2195
vn 0.0155 0.9602 0.2790
vn -0.8642 0.5032 0.0060
vn -0.3723 -0.4661 -0.8026
vn -0.6846 -0.3990 -0.6100
vn -0.6584 -0.5159 -0.5481
vn 0.7662 0.2936 0.5717
vn -0.9345 -0.2028 0.2925
vn -0.9738 -0.1265 0.1887
vn 0.8730 -0.2559 0.4153
vn -0.4211 0.8591 0.2909
vn -0.6175 0.6181 0.4865
vn -0.7731 0.5607 -0.2967
vn -0.8819 0.4167 -0.2204
vn 1.0000 -0.0000 -0.0000
vn 0.0906 0.2424 -0.9659
vn 0.1872 0.2433 -0.9517
vn -0.0346 0.4802 0.8765
vn -0.2771 -0.8493 0.4493
vn 0.1086 -0.7502 -0.6523
vn 0.1763 -0.7253 -0.6655
vn -0.1872 0.2433 -0.9517
vn 0.4281 -0.1134 0.8966
vn 0.7730 -0.5607 0.2967
vn -0.6503 0.0321 0.7590
vn -0.6313 0.7751 -0.0276
vn -0.3366 0.8710 0.3577
vn 0.0468 0.4417 0.8960
vn -0.6198 0.6159 0.4863
vn -0.5451 0.7547 0.3651
vn 0.5505 0.0711 -0.8318
vn 0.7730 0.5607 -0.2967
vn -0.0582 0.9478 0.3136
vn -0.2902 0.8459 -0.4475
vn 0.3358 0.2270 -0.9142
vn 0.4714 0.7795 -0.4125
vn 0.7087 -0.2666 -0.6532
vn 0.6816 -0.1454 -0.7171
vn 0.9569 -0.2566 0.1358
vn 0.6902 0.2829 0.6660
vn 0.9952 -0.0866 0.0459
vn 0.6846 -0.3990 -0.6100
vn 0.6897 -0.3387 -0.6400
vn 0.3759 -0.4334 -0.8191
vn 0.6283 -0.0314 -0.7774
vn 0.0674 -0.9446 -0.3214
vn -0.0980 -0.8796 0.4654
vn 0.0980 -0.8796 0.4654
vn -0.5403 0.7334 0.4126
vn -0.6344 0.6833 -0.3615
vn -0.3725 -0.4012 -0.8368
vn 0.0155 0.5677 0.8231
vn 0.8753 -0.0662 0.4790
vn -0.0938 0.1673 0.9814
vn -0.2068 0.2742 -0.9392
vn -0.3358 0.2270 -0.9142
vn 0.5505 -0.7276 -0.4092
vn 0.6344 -0.6833 0.3616
vn 0.4519 -0.8149 -0.3629
vn -0.5318 -0.7252 -0.4374
vn -0.6995 0.3829 0.6034
vn 0.3433 -0.2187 0.9134
vn -0.6282 -0.0315 -0.7775
vn -0.1086 -0.7502 -0.6523
vn -0.0674 -0.9446 -0.3214
vn -0.0366 -0.7627 -0.6457
vn 0.0345 0.4868 0.8728
vn 0.3039 0.4719 0.8276
vn 0.1076 0.6973 0.7086
vn 0.2068 0.2742 -0.9392
vn 0.1086 -0.1174 -0.9871
vn 0.0366 -0.1047 -0.9938
vn 0.6343 -0.6834 0.3615
vn 0.3189 -0.2187 0.9222
vn 0.4556 -0.1376 0.8795
vn 0.5948 0.7163 -0.3648
vn 0.3505 0.8691 0.3491
vn 0.8819 0.4167 -0.2204
vn 0.6175 0.6181 0.4864
vn 0.0466 0.4587 0.8873
vn -0.0865 0.9960 0.0212
vn 0.0856 0.9962 0.0138
vn 0.4714 -0.7795 0.4125
vn 0.3357 -0.8835 -0.3267
vn -0.4774 -0.7788 0.4068
vn -0.1842 -0.2736 0.9440
vn -0.3461 -0.2126 0.9138
vn -0.9569 0.2566 -0.1357
vn -0.6612 0.5228 0.5380
vn -0.7042 0.3849 0.5966
vn -0.9952 0.0867 -0.0458
vn 0.1118 0.9430 0.3134
vn 0.1542 0.8736 -0.4615
vn -0.3300 -0.5896 -0.7372
vn -0.6066 -0.6261 -0.4899
vn 0.0289 0.5050 0.8626
vn -0.4557 -0.1377 0.8794
vn -0.4122 0.7346 0.5388
vn -0.3401 0.9398 -0.0346
vn 0.0780 -0.2999 0.9508
vn 0.1842 -0.2736 0.9440
vn 0.8956 0.2267 0.3827
vn 0.7805 0.5998 0.1765
vn 0.0698 0.2982 -0.9519
vn 0.2902 0.8459 -0.4475
vn -0.7119 0.3322 0.6187
vn -0.0780 -0.2999 0.9508
vn 0.4402 -0.7926 0.4218
vn -0.4395 -0.2576 0.8605
vn -0.4403 -0.7926 0.4218
vn 0.1997 -0.9213 -0.3338
vn 0.2903 -0.8459 0.4474
vn 0.1016 -0.1203 -0.9875
vn -0.4714 -0.7795 0.4124
vn 0.0527 -0.3167 0.9471
vn 0.7931 -0.1976 0.5761
vn 0.4993 -0.4916 0.7134
vn 0.8475 -0.4686 0.2493
vn -0.0698 0.2982 -0.9519
vn 0.0980 0.8796 -0.4655
vn 0.4334 0.1234 -0.8927
vn 0.1764 -0.1421 -0.9740
vn 0.9952 -0.0867 0.0458
vn 0.1784 -0.1467 -0.9730
vn 0.3327 0.1892 -0.9239
vn 0.0582 0.9478 0.3136
vn -0.4364 -0.8094 -0.3929
vn -0.0553 -0.7763 -0.6280
vn -0.0111 -0.7476 -0.6640
vn -0.1139 0.6814 0.7230
vn -0.1455 0.9893 0.0140
vn -0.5912 0.7967 0.1251
vn -0.4534 0.8075 0.3773
vn -0.6066 -0.0528 -0.7932
vn -0.7730 0.5608 -0.2967
vn 0.4363 -0.8095 -0.3929
vn 0.6584 -0.5159 -0.5481
vn 0.0080 0.5007 0.8656
vn -0.0084 0.5007 0.8656
vn -0.0527 -0.3167 0.9471
vn 0.2891 -0.6434 -0.7088
vn 0.5318 -0.7251 -0.4374
vn 0.6683 0.1451 0.7296
vn 0.3241 0.8843 0.3361
vn -0.3189 -0.2187 0.9222
vn -0.1983 -0.9344 -0.2960
vn -0.3459 -0.8803 -0.3247
vn -0.1763 -0.1420 -0.9740
vn -0.1017 -0.1204 -0.9875
vn 0.0286 0.4041 0.9143
vn 0.3243 -0.8756 -0.3578
vn 0.3721 -0.4014 -0.8369
vn 0.3580 -0.3377 -0.8705
vn 0.6282 -0.6251 -0.4633
vn -0.2903 -0.8459 0.4474
vn -0.2137 -0.2526 0.9437
vn 0.7026 0.2783 0.6549
vn 0.2374 -0.6894 -0.6844
vn -0.2374 -0.6893 -0.6844
vn -0.3243 -0.8757 -0.3578
vn -0.1997 -0.9213 -0.3338
vn -0.2891 -0.2241 -0.9307
vn -0.3300 -0.2778 -0.9022
vn -0.3043 0.4699 0.8286
vn -0.0425 0.4754 0.8788
vn 0.4715 -0.7795 0.4124
vn 0.6896 0.3387 0.6401
vn 1.0000 -0.0001 -0.0001
vn 0.0380 0.4734 0.8800
vn 0.0300 0.4860 0.8735
vn -0.6886 0.1197 0.7152
vn 0.5928 0.7927 0.1425
vn 0.2130 0.9266 0.3099
vn 0.6068 -0.6261 -0.4898
vn -0.5947 -0.7162 0.3653
vn -0.4430 -0.1470 0.8844
vn 0.8819 -0.4167 0.2203
vn -0.1118 0.9430 0.3134
vn -0.1542 0.8736 -0.4615
vn 0.0331 -0.5251 0.8504
vn -0.0387 0.4000 -0.9157
vn 0.0387 0.4455 -0.8944
vn -0.1086 -0.1174 -0.9871
vn -0.1764 -0.1421 -0.9740
vn 0.7088 -0.3900 -0.5879
vn -0.6344 0.6833 -0.3614
vn -0.5318 0.0464 -0.8456
vn 0.6847 0.6379 -0.3527
vn -0.7087 -0.2666 -0.6532
vn 0.0005 0.4737 0.8807
vn -0.0288 0.4041 0.9143
vn -0.0906 0.2424 -0.9659
vn 0.4350 0.8174 0.3777
vn 0.3299 -0.5895 -0.7373
vn 0.6880 0.1207 0.7156
vn 0.5351 -0.0687 0.8420
vn -0.8572 0.4408 0.2663
vn -0.4087 0.2964 0.8632
vn -0.7844 0.5954 0.1738
vn -0.8875 0.1934 0.4182
vn -0.7891 -0.1981 0.5814
vn -0.8474 -0.4687 0.2493
vn -0.8453 -0.1506 0.5127
vn 0.4800 -0.0358 0.8765
vn 0.2372 -0.6893 -0.6846
vn 0.8876 0.1934 0.4180
vn -0.2891 -0.2240 -0.9307
vn -0.2374 -0.1780 -0.9550
vn -0.1763 -0.7253 -0.6655
vn -0.7139 -0.3275 -0.6190
vn -0.3249 -0.1460 0.9344
vn 0.0094 0.4687 0.8833
vn -0.0026 0.4684 0.8835
vn -0.0072 0.4718 0.8817
vn -0.8455 -0.5173 -0.1326
vn 0.0046 0.4735 0.8808
vn 0.0072 0.4725 0.8813
vn 0.0047 0.4765 0.8792
vn 0.8634 0.5044 0.0086
vn -0.5141 -0.4808 0.7103
vn 0.0009 0.4637 0.8860
vn 0.0007 0.4637 0.8860
vn 0.0014 0.4632 0.8863
vn -0.0041 0.4741 0.8805
vn -0.0044 0.4647 0.8855
vn -0.0011 0.4685 0.8835
vn -0.3480 0.1773 0.9206
vn -0.0532 -0.1427 -0.9883
vn -0.0121 -0.0816 -0.9966
vn 0.0114 0.4678 0.8837
vn -0.0980 0.4841 0.8695
vn 0.0326 0.4664 0.8840
vn 0.0004 0.4628 0.8865
vn 0.0495 0.4784 0.8768
vn -0.0025 0.4620 0.8869
vn 0.0060 0.4580 0.8889
vn 0.1616 -0.8733 0.4596
vn -0.6313 -0.3362 -0.6989
vn 0.9863 -0.0461 0.1584
vn 0.9738 -0.1278 0.1883
vn -0.5622 0.6073 0.5614
vn -0.6561 -0.0302 -0.7541
vn 0.6612 0.5228 0.5380
vn 0.8412 0.2331 0.4879
vn 0.6564 -0.0293 -0.7539
vn -0.3757 -0.4334 -0.8192
vn 0.3300 -0.2777 -0.9022
vn -1.0000 -0.0000 -0.0000
vn -1.0000 -0.0000 -0.0001
vn -1.0000 0.0065 -0.0035
vn -0.9863 -0.0469 0.1581
vn -0.8959 0.2264 0.3822
vn -0.4372 0.8994 0.0014
vn -0.3582 -0.5297 -0.7689
vn 0.9999 0.0113 0.0106
vn 1.0000 0.0060 -0.0041
vn -0.0980 0.8796 -0.4655
vn 0.3581 -0.5297 -0.7689
vn -0.3581 -0.3377 -0.8705
vn -0.3299 -0.2778 -0.9022
vn -0.0021 0.4640 0.8858
vn -0.0366 -0.1047 -0.9938
vn -0.0274 0.4714 0.8815
vn -0.2890 -0.6434 -0.7089
vn 0.0121 -0.0816 -0.9966
vn 0.0532 -0.1427 -0.9883
vn 0.2137 -0.2526 0.9437
vn -0.0314 -0.5699 0.8211
vn 0.2101 -0.1815 -0.9607
vn 0.2819 -0.1610 -0.9458
vn -0.6848 -0.6354 0.3568
vn 0.3301 -0.5896 -0.7372
vn 0.0310 -0.8830 0.4684
vn -0.0005 0.4737 0.8807
vn 0.1561 0.9870 -0.0389
vn 0.0366 -0.7627 -0.6457
vn 0.4409 0.8975 -0.0008
vn -0.0004 0.4633 0.8862
vn -0.0333 0.4636 0.8854
vn -0.0079 0.4624 0.8867
vn 0.0141 0.4827 0.8757
vn -0.0181 0.5000 0.8659
vn -0.0585 0.4789 0.8759
vn -0.0130 0.4727 0.8811
vn 0.0145 0.4755 0.8796
vn 0.0072 0.4637 0.8859
vn 0.0235 0.4465 0.8944
vn 0.0374 0.4800 0.8764
vn -0.0029 0.4732 0.8809
vn 0.0006 0.4683 0.8836
vn -0.0103 0.4646 0.8855
vn -0.0302 0.4535 0.8907
vn 0.0289 0.4653 0.8847
vn 0.0017 0.4638 0.8860
vn 0.0029 0.4647 0.8855
vn 0.0010 0.4638 0.8859
vn 0.0002 0.4627 0.8865
vn 0.0003 0.4628 0.8864
vn 0.0008 0.4643 0.8857
vn 0.0012 0.4636 0.8861
vn 0.0013 0.4636 0.8861
vn 0.0001 0.4639 0.8859
vn 0.0028 0.4635 0.8861
vn -0.0005 0.4635 0.8861
vn 0.0024 0.4661 0.8847
vn 0.0011 0.4625 0.8866
vn 0.0020 0.4601 0.8879
vn 0.0074 0.4604 0.8877
vn 0.0027 0.4771 0.8788
vn -0.0074 0.4715 0.8818
vn -0.0102 0.4640 0.8858
vn 0.0059 0.4505 0.8928
vn 0.0467 0.4761 0.8782
vn -0.0101 0.4642 0.8857
vn -0.0204 0.4405 0.8975
vt 0.620605 0.639648
vt 0.622070 0.640137
vt 0.621773 0.640769
vt 0.006981 0.555176
vt 0.008339 0.551270
vt 0.008891 0.553748
vt 0.006664 0.558594
vt 0.008102 0.556928
vt 0.006844 0.562012
vt 0.301514 0.027924
vt 0.298828 0.034912
vt 0.298828 0.027939
vt 0.007320 0.562500
vt 0.008601 0.562487
vt 0.022023 0.562487
vt 0.022522 0.557038
vt 0.023788 0.562012
vt 0.023300 0.562500
vt 0.023956 0.558594
vt 0.023651 0.555176
vt 0.022202 0.555176
vt 0.022293 0.551270
vt 0.020920 0.551270
vt 0.009648 0.544402
vt 0.008011 0.543945
vt 0.023987 0.556641
vt 0.304199 0.020966
vt 0.301514 0.020996
vt 0.368532 0.577390
vt 0.369257 0.576908
vt 0.371338 0.578370
vt 0.009521 0.541504
vt 0.301758 0.048859
vt 0.304688 0.055817
vt 0.301758 0.055847
vt 0.007408 0.541504
vt 0.007593 0.535129
vt 0.020973 0.544280
vt 0.021088 0.541548
vt 0.022614 0.543945
vt 0.023209 0.541504
vt 0.022994 0.535131
vt 0.009552 0.538574
vt 0.312012 0.020813
vt 0.314453 0.010023
vt 0.314453 0.020798
vt 0.020935 0.535156
vt 0.005177 0.495850
vt 0.006325 0.471354
vt 0.006332 0.497314
vt 0.307617 0.143751
vt 0.310059 0.133057
vt 0.310059 0.140137
vt 0.680736 0.645158
vt 0.680176 0.642578
vt 0.682129 0.642090
vt 0.009598 0.531738
vt 0.007488 0.531738
vt 0.304688 0.090820
vt 0.302002 0.097839
vt 0.302002 0.090820
vt 0.548340 0.718772
vt 0.549572 0.718829
vt 0.549623 0.719803
vt 0.307528 0.156813
vt 0.307373 0.172999
vt 0.304688 0.161255
vt 0.304688 0.069824
vt 0.301758 0.076843
vt 0.301758 0.069824
vt 0.317139 0.010323
vt 0.317139 0.013817
vt 0.571239 0.726411
vt 0.571597 0.721218
vt 0.574448 0.723231
vt 0.314697 0.055756
vt 0.317383 0.055756
vt 0.317383 0.062744
vt 0.022415 0.503906
vt 0.021606 0.510742
vt 0.021726 0.502804
vt 0.006668 0.469238
vt 0.007723 0.469864
vt 0.312500 0.076782
vt 0.310059 0.069763
vt 0.312500 0.069763
vt 0.314941 0.207518
vt 0.317627 0.207520
vt 0.317627 0.211060
vt 0.009544 0.521973
vt 0.007828 0.511230
vt 0.008675 0.511230
vt 0.317627 0.147217
vt 0.315186 0.154297
vt 0.315186 0.147217
vt 0.020920 0.521973
vt 0.022461 0.511230
vt 0.023056 0.521973
vt 0.023087 0.528320
vt 0.020966 0.531738
vt 0.020981 0.528320
vt 0.024704 0.497314
vt 0.023712 0.497314
vt 0.024841 0.495605
vt 0.005352 0.497559
vt 0.301514 0.218140
vt 0.304443 0.225220
vt 0.301514 0.225220
vt 0.310059 0.090820
vt 0.312500 0.097839
vt 0.310059 0.097839
vt 0.299072 0.062866
vt 0.299072 0.055878
vt 0.023280 0.471137
vt 0.024643 0.473145
vt 0.569018 0.723506
vt 0.568438 0.718436
vt 0.571485 0.720865
vt 0.022888 0.469238
vt 0.021712 0.469655
vt 0.315186 0.168457
vt 0.317627 0.168457
vt 0.317627 0.175537
vt 0.008391 0.502848
vt 0.007744 0.503906
vt 0.317627 0.090759
vt 0.317627 0.097839
vt 0.314941 0.097839
vt 0.547363 0.699754
vt 0.571729 0.696930
vt 0.569506 0.699837
vt 0.568161 0.704546
vt 0.566712 0.703064
vt 0.617676 0.641602
vt 0.615149 0.645154
vt 0.615234 0.642578
vt 0.314941 0.236330
vt 0.312256 0.236450
vt 0.312256 0.232666
vt 0.602051 0.638184
vt 0.596680 0.629883
vt 0.601562 0.634277
vt 0.302002 0.083801
vt 0.675293 0.639648
vt 0.673828 0.640137
vt 0.674805 0.639160
vt 0.620605 0.647949
vt 0.624023 0.641602
vt 0.675293 0.647949
vt 0.657986 0.649767
vt 0.674189 0.640689
vt 0.636230 0.647949
vt 0.637960 0.649790
vt 0.657715 0.648926
vt 0.659668 0.647949
vt 0.301758 0.062805
vt 0.640137 0.649902
vt 0.642578 0.649902
vt 0.640429 0.650879
vt 0.309814 0.041809
vt 0.312256 0.048767
vt 0.309814 0.048798
vt 0.655762 0.649902
vt 0.655345 0.650879
vt 0.653320 0.649902
vt 0.638087 0.657188
vt 0.296387 0.069824
vt 0.299072 0.069824
vt 0.299072 0.076843
vt 0.671875 0.641113
vt 0.613770 0.642090
vt 0.608947 0.641967
vt 0.678223 0.641602
vt 0.009651 0.535156
vt 0.310059 0.161377
vt 0.312500 0.154297
vt 0.312500 0.161377
vt 0.694336 0.634277
vt 0.693848 0.628418
vt 0.699219 0.629395
vt 0.298828 0.235477
vt 0.298828 0.225220
vt 0.571949 0.702542
vt 0.312256 0.225342
vt 0.317139 0.020798
vt 0.317139 0.027771
vt 0.298828 0.020996
vt 0.309814 0.034821
vt 0.312256 0.041779
vt 0.304688 0.083801
vt 0.304443 0.034882
vt 0.304443 0.027908
vt 0.307269 0.045854
vt 0.304443 0.048828
vt 0.304443 0.041840
vt 0.314941 0.090820
vt 0.312500 0.090820
vt 0.310059 0.125977
vt 0.312744 0.133057
vt 0.314941 0.104858
vt 0.312500 0.104858
vt 0.314941 0.069763
vt 0.314941 0.076782
vt 0.301758 0.168335
vt 0.304688 0.175537
vt 0.301758 0.175537
vt 0.299072 0.175415
vt 0.298828 0.182617
vt 0.296143 0.182495
vt 0.314941 0.083801
vt 0.299072 0.125977
vt 0.302002 0.118958
vt 0.302002 0.125977
vt 0.310059 0.154297
vt 0.312500 0.147217
vt 0.296143 0.062866
vt 0.546875 0.723099
vt 0.567142 0.719787
vt 0.575040 0.700289
vt 0.312500 0.140137
vt 0.315186 0.133057
vt 0.315186 0.140137
vt 0.314697 0.041779
vt 0.312256 0.034790
vt 0.314697 0.034790
vt 0.299072 0.090820
vt 0.304688 0.062805
vt 0.309570 0.027847
vt 0.315186 0.161377
vt 0.296387 0.111877
vt 0.299072 0.118958
vt 0.296387 0.118958
vt 0.544280 0.720251
vt 0.543960 0.725457
vt 0.540654 0.722217
vt 0.315186 0.111877
vt 0.317627 0.111877
vt 0.317627 0.118958
vt 0.302002 0.147095
vt 0.304688 0.140137
vt 0.304688 0.147095
vt 0.301514 0.211060
vt 0.304443 0.218140
vt 0.312500 0.083801
vt 0.310059 0.083801
vt 0.307373 0.059528
vt 0.642090 0.658203
vt 0.653809 0.658203
vt 0.312256 0.027817
vt 0.314697 0.027802
vt 0.312256 0.218262
vt 0.309814 0.225342
vt 0.309814 0.218140
vt 0.312500 0.168457
vt 0.310059 0.168457
vt 0.310059 0.175537
vt 0.312500 0.175537
vt 0.304199 0.235595
vt 0.301514 0.235352
vt 0.296387 0.083862
vt 0.299072 0.083862
vt 0.307617 0.101275
vt 0.304688 0.097839
vt 0.549507 0.704144
vt 0.548340 0.704352
vt 0.309326 0.010094
vt 0.309570 0.020859
vt 0.546387 0.729004
vt 0.542480 0.726074
vt 0.315186 0.118958
vt 0.312500 0.111877
vt 0.310059 0.182617
vt 0.309570 0.236328
vt 0.020981 0.524902
vt 0.009544 0.528320
vt 0.009521 0.524902
vt 0.299072 0.133057
vt 0.302002 0.133057
vt 0.295898 0.225220
vt 0.302002 0.104858
vt 0.304688 0.125977
vt 0.572754 0.727051
vt 0.575195 0.724609
vt 0.023071 0.525391
vt 0.315186 0.125977
vt 0.312500 0.118958
vt 0.298828 0.207397
vt 0.317627 0.104858
vt 0.312500 0.062744
vt 0.312256 0.055786
vt 0.295898 0.218140
vt 0.298828 0.218140
vt 0.310059 0.118958
vt 0.299072 0.097839
vt 0.317383 0.232422
vt 0.317627 0.236084
vt 0.541278 0.699922
vt 0.539551 0.700684
vt 0.541016 0.698242
vt 0.310059 0.147217
vt 0.298828 0.048889
vt 0.301758 0.041870
vt 0.302002 0.154175
vt 0.299072 0.147095
vt 0.299072 0.168335
vt 0.307617 0.114416
vt 0.307617 0.130518
vt 0.304688 0.118958
vt 0.296387 0.154175
vt 0.299072 0.154175
vt 0.309814 0.055786
vt 0.310059 0.104858
vt 0.304688 0.104858
vt 0.314697 0.225342
vt 0.314941 0.218262
vt 0.296143 0.027954
vt 0.295898 0.020966
vt 0.307129 0.024476
vt 0.299072 0.140015
vt 0.317383 0.069763
vt 0.317627 0.076721
vt 0.314697 0.048767
vt 0.302002 0.111938
vt 0.304688 0.111877
vt 0.310059 0.062805
vt 0.296387 0.147095
vt 0.296387 0.097839
vt 0.299072 0.104858
vt 0.299072 0.111938
vt 0.317627 0.154297
vt 0.317627 0.161377
vt 0.544523 0.696904
vt 0.544662 0.702110
vt 0.302002 0.140137
vt 0.304688 0.182617
vt 0.301758 0.182617
vt 0.307373 0.072279
vt 0.307373 0.088250
vt 0.304688 0.076782
vt 0.540527 0.724121
vt 0.310059 0.111877
vt 0.299072 0.161255
vt 0.312500 0.211060
vt 0.310058 0.207521
vt 0.301758 0.161255
vt 0.303955 0.010842
vt 0.301514 0.011017
vt 0.577148 0.720703
vt 0.009018 0.468506
vt 0.020538 0.468506
vt 0.317627 0.133057
vt 0.317627 0.140137
vt 0.314941 0.062744
vt 0.301514 0.034882
vt 0.298828 0.041901
vt 0.301758 0.207520
vt 0.314941 0.175537
vt 0.306885 0.235962
vt 0.307129 0.221571
vt 0.298828 0.010876
vt 0.304443 0.207518
vt 0.317383 0.048737
vt 0.304688 0.168457
vt 0.304688 0.154175
vt 0.549624 0.703048
vt 0.566640 0.703613
vt 0.542969 0.696289
vt 0.568848 0.693848
vt 0.296387 0.133057
vt 0.573242 0.696289
vt 0.007427 0.525391
vt 0.007446 0.528809
vt 0.567276 0.718687
vt 0.317139 0.034760
vt 0.317383 0.041748
vt 0.568359 0.729492
vt 0.296143 0.041901
vt 0.296143 0.034943
vt 0.317383 0.218262
vt 0.317383 0.225342
vt 0.314941 0.182617
vt 0.006645 0.556641
vt 0.368289 0.577875
vt 0.371338 0.577879
vt 0.370857 0.579338
vt 0.007412 0.521973
vt 0.369874 0.576660
vt 0.370371 0.579590
vt 0.368288 0.577876
vt 0.657825 0.657182
vt 0.575684 0.699219
vt 0.370605 0.579590
vt 0.368652 0.579102
vt 0.368652 0.577148
vt 0.369868 0.579590
vt 0.368287 0.578371
vt 0.369261 0.576906
vt 0.621094 0.639160
vt 0.296143 0.014015
vt 0.296387 0.010544
vt 0.370854 0.579341
vt 0.370117 0.579590
vt 0.369381 0.579590
vt 0.368164 0.578125
vt 0.370360 0.576903
vt 0.371215 0.577391
vt 0.368528 0.578853
vt 0.312012 0.013618
vt 0.004997 0.473389
vt 0.686821 0.639988
vt 0.686935 0.641790
vt 0.638184 0.649414
vt 0.005299 0.470947
vt 0.310059 0.076782
vt 0.023071 0.531738
vt 0.024292 0.470703
vt 0.317627 0.182617
vt 0.317627 0.083740
vt 0.600586 0.626465
vt 0.602051 0.628418
vt 0.603027 0.636719
vt 0.609078 0.639988
vt 0.598633 0.626465
vt 0.596680 0.627441
vt 0.547363 0.693848
vt 0.640137 0.658203
vt 0.296387 0.076843
vt 0.695312 0.626465
vt 0.697266 0.626465
vt 0.698730 0.627441
vt 0.693359 0.638184
vt 0.692871 0.636719
vt 0.312500 0.125977
vt 0.296143 0.175415
vt 0.296143 0.168335
vt 0.296143 0.055878
vt 0.296143 0.048889
vt 0.307373 0.207520
vt 0.317627 0.125977
vt 0.307373 0.182617
vt 0.296387 0.090820
vt 0.312500 0.182617
vt 0.296143 0.235840
vt 0.296143 0.232300
vt 0.304688 0.133057
vt 0.577637 0.703125
vt 0.295898 0.210938
vt 0.295898 0.207397
vt 0.312500 0.207520
vt 0.296387 0.140015
vt 0.296387 0.104858
vt 0.296143 0.161255
vt 0.312012 0.009926
vt 0.306641 0.010460
vt 0.539062 0.721680
vt 0.296387 0.125977
vt 0.655762 0.657715
vt 0.368771 0.577148
vt 0.369629 0.576660
vt 0.370369 0.576912
vt 0.371094 0.577148
vt 0.371338 0.578613
vt 0.369375 0.579590
vt 0.368527 0.578851
vt 0.371338 0.578373
vt 0.371094 0.579102
vt 0.369629 0.579590
vt 0.368895 0.579344
vt 0.371217 0.577395
vt 0.368408 0.578613
vt 0.370605 0.577148
vt 0.368777 0.577148
vt 0.370117 0.576660
vt 0.371338 0.577637
vt 0.371338 0.578125
vt 0.369141 0.579590
vt 0.368408 0.577637
vt 0.368896 0.577148
vt 0.371215 0.578859
vt 0.368890 0.579340
vt 0.368528 0.577397
vt 0.370846 0.577148
vt 0.371338 0.577880
s 1
f 16/1/1 22/2/2 17/3/3
f 4/4/4 13/5/5 1/6/6
f 10/7/7 2/8/8 19/9/9
f 228/10/10 231/11/11 230/12/12
f 21/13/13 19/9/9 20/14/14
f 20/14/14 19/9/9 2/8/8
f 79/15/15 9/16/16 94/17/17
f 95/18/18 79/15/15 94/17/17
f 86/19/19 94/17/17 9/16/16
f 81/20/20 8/21/21 88/22/22
f 37/23/23 88/22/22 8/21/21
f 12/24/24 13/5/5 26/25/25
f 86/19/19 9/16/16 82/26/26
f 208/27/27 228/10/10 210/28/28
f 459/29/29 460/30/30 463/31/31
f 12/24/24 26/25/25 25/32/32
f 246/33/33 260/34/34 262/35/35
f 27/36/36 25/32/32 26/25/25
f 27/36/36 64/37/37 25/32/32
f 52/38/38 99/39/39 101/40/40
f 100/41/41 101/40/40 99/39/39
f 100/41/41 99/39/39 122/42/42
f 65/43/43 25/32/32 64/37/37
f 204/44/44 218/45/45 220/46/46
f 122/42/42 99/39/39 117/47/47
f 45/48/48 40/49/49 44/50/50
f 310/51/51 323/52/52 308/53/53
f 84/54/54 83/55/55 87/56/56
f 61/57/57 64/37/37 62/58/58
f 156/59/59 174/60/60 158/61/61
f 426/62/62 432/63/63 424/64/64
f 293/65/65 276/66/66 294/67/67
f 138/68/68 141/69/69 140/70/70
f 218/45/45 216/71/71 217/72/72
f 393/73/73 418/74/74 400/75/75
f 269/76/76 268/77/77 270/78/78
f 111/79/79 72/80/80 54/81/81
f 40/49/49 48/82/82 41/83/83
f 135/84/84 134/85/85 133/86/86
f 37/23/23 12/24/24 52/38/38
f 375/87/87 381/88/88 376/89/89
f 66/90/90 71/91/91 70/92/92
f 320/93/93 304/94/94 319/95/95
f 118/96/96 126/97/97 123/98/98
f 120/99/99 116/100/100 57/101/101
f 109/102/102 80/103/103 110/104/104
f 43/105/105 45/48/48 44/50/50
f 367/106/106 348/107/107 350/108/108
f 153/109/109 167/110/110 168/111/111
f 262/35/35 265/112/112 264/113/113
f 110/104/104 42/114/114 114/115/115
f 416/116/116 431/117/117 423/118/118
f 112/119/119 42/114/114 108/120/120
f 287/121/121 288/122/122 286/123/123
f 43/105/105 47/124/124 46/125/125
f 165/126/126 180/127/127 181/128/128
f 421/129/129 412/130/130 422/131/131
f 422/131/131 430/132/132 429/133/133
f 6/134/134 7/135/135 5/136/136
f 357/137/137 342/138/138 341/139/139
f 68/140/140 78/141/141 73/142/142
f 157/143/143 156/59/59 158/61/61
f 16/1/1 17/3/3 6/134/134
f 7/135/135 6/134/134 17/3/3
f 92/144/144 97/145/145 98/146/146
f 7/135/135 17/3/3 18/147/147
f 22/2/2 23/148/148 17/3/3
f 109/102/102 54/81/81 80/103/103
f 93/149/149 102/150/150 91/151/151
f 28/152/152 29/153/153 23/148/148
f 102/150/150 105/154/154 103/155/155
f 260/34/34 263/156/156 262/35/35
f 32/157/157 30/158/158 31/159/159
f 239/160/160 240/161/161 241/162/162
f 104/163/163 38/164/164 53/165/165
f 31/159/159 35/166/166 29/153/153
f 144/167/167 142/168/168 143/169/169
f 103/155/155 96/170/170 102/150/150
f 84/54/54 93/149/149 91/151/151
f 97/145/145 91/151/151 96/170/170
f 11/171/171 7/135/135 15/172/172
f 92/144/144 85/173/173 91/151/151
f 84/54/54 91/151/151 85/173/173
f 85/173/173 83/55/55 84/54/54
f 65/43/43 64/37/37 63/174/174
f 289/175/175 292/176/176 290/177/177
f 127/178/178 131/179/178 132/180/178
f 350/108/108 351/181/179 352/182/180
f 419/183/181 431/117/117 430/132/132
f 344/184/182 357/137/137 341/139/139
f 140/70/70 143/169/169 142/168/168
f 220/46/46 219/185/183 234/186/184
f 228/10/10 212/187/185 210/28/28
f 224/188/186 238/189/187 239/160/160
f 141/69/69 155/190/188 157/143/143
f 227/191/189 228/10/10 226/192/190
f 242/193/191 244/194/192 243/195/193
f 166/196/194 167/110/110 152/197/195
f 325/198/196 324/199/197 323/52/52
f 167/110/110 183/200/198 169/201/199
f 135/84/84 147/202/200 149/203/201
f 280/204/202 277/205/203 279/206/204
f 281/207/205 387/208/206 388/209/207
f 164/210/208 135/84/84 149/203/201
f 333/211/209 192/212/210 331/213/211
f 291/214/212 307/215/213 292/176/176
f 264/113/113 265/112/112 267/216/214
f 29/153/153 32/157/157 31/159/159
f 415/217/215 425/218/216 416/116/116
f 418/74/74 401/219/217 400/75/75
f 309/220/10 336/221/218 321/222/219
f 157/143/143 143/169/169 141/69/69
f 252/223/220 223/224/221 237/225/222
f 429/133/133 421/129/129 422/131/131
f 174/60/60 160/226/223 158/61/61
f 88/22/22 52/38/38 101/40/40
f 142/168/168 267/216/214 265/112/112
f 140/70/70 261/227/224 138/68/68
f 222/228/225 223/224/221 224/188/186
f 302/229/226 292/176/176 304/94/94
f 195/230/227 194/231/228 196/232/229
f 417/233/230 392/234/231 396/235/232
f 198/236/233 197/237/234 199/238/235
f 8/21/21 1/6/6 37/23/23
f 313/239/236 312/240/237 311/241/238
f 368/242/239 365/243/240 367/106/106
f 150/244/241 153/109/109 151/245/242
f 259/246/243 261/227/224 260/34/34
f 36/247/244 38/164/164 39/248/245
f 96/170/170 91/151/151 102/150/150
f 237/225/222 221/249/246 235/250/247
f 164/210/208 152/197/195 150/244/241
f 362/251/248 343/252/249 361/253/250
f 289/175/175 275/254/251 274/255/252
f 272/256/253 275/254/251 273/257/254
f 350/108/108 347/258/255 349/259/256
f 161/260/257 159/261/258 160/226/223
f 171/262/259 172/263/260 156/59/59
f 433/264/261 426/62/62 427/265/262
f 202/266/263 204/44/44 205/267/264
f 392/234/231 391/268/265 398/269/266
f 200/270/267 184/271/268 198/236/233
f 415/217/215 426/62/62 424/64/64
f 273/257/254 383/272/269 272/256/253
f 344/184/182 340/273/270 343/252/249
f 56/274/271 58/275/272 55/276/273
f 332/277/274 331/213/211 330/278/275
f 304/94/94 307/215/213 319/95/95
f 355/279/276 352/182/180 351/181/179
f 172/263/260 175/280/277 174/60/60
f 329/281/278 330/278/275 331/213/211
f 404/282/279 400/75/75 403/283/280
f 118/96/96 119/284/281 56/274/271
f 338/285/282 186/286/283 200/270/267
f 8/21/21 2/8/8 1/6/6
f 367/106/106 370/287/284 368/242/239
f 20/14/14 9/16/16 79/15/15
f 181/128/128 180/127/127 182/288/285
f 269/76/76 257/289/286 255/290/202
f 352/182/180 371/291/287 369/292/288
f 187/293/289 184/271/268 186/286/283
f 310/51/51 311/241/238 312/240/237
f 151/245/242 135/84/84 150/244/241
f 205/267/264 221/249/246 222/228/225
f 175/280/277 176/294/290 174/60/60
f 169/201/199 198/236/233 184/271/268
f 358/295/291 356/296/292 357/137/137
f 407/297/293 405/298/294 406/299/295
f 308/53/53 307/215/213 306/300/296
f 248/301/297 245/302/298 246/33/33
f 297/303/187 315/304/299 313/239/236
f 38/164/164 30/158/158 53/165/165
f 116/100/100 63/174/174 61/57/57
f 279/206/204 282/305/300 280/204/202
f 188/306/301 327/307/302 190/308/303
f 301/309/304 315/304/299 299/310/305
f 241/162/162 255/290/202 256/311/306
f 170/312/307 167/110/110 169/201/199
f 173/313/308 172/263/260 171/262/259
f 359/314/309 362/251/248 373/315/310
f 232/316/311 215/317/312 230/12/12
f 225/318/313 227/191/189 226/192/190
f 316/319/314 313/239/236 315/304/299
f 147/202/200 146/320/315 148/321/316
f 255/290/202 254/322/317 269/76/76
f 191/323/318 173/313/308 189/324/319
f 133/86/86 258/325/320 257/289/286
f 276/66/66 274/255/252 272/256/253
f 316/319/314 315/304/299 317/326/321
f 178/327/322 176/294/290 177/328/323
f 102/150/150 104/163/163 105/154/154
f 175/280/277 193/329/324 177/328/323
f 304/94/94 305/330/325 303/331/326
f 409/332/327 420/333/328 407/297/293
f 330/278/275 312/240/237 314/334/329
f 279/206/204 385/335/330 386/336/331
f 137/337/332 154/338/333 139/339/334
f 396/235/232 398/269/266 397/340/335
f 185/341/336 169/201/199 184/271/268
f 301/309/304 299/310/305 298/342/337
f 186/286/283 325/198/196 187/293/289
f 306/300/296 291/214/212 310/51/51
f 364/343/338 361/253/250 363/344/339
f 289/175/175 274/255/252 293/65/65
f 324/199/197 338/285/282 336/221/218
f 246/33/33 264/113/113 248/301/297
f 191/323/318 190/308/303 192/212/210
f 190/308/303 331/213/211 192/212/210
f 298/342/337 297/303/187 296/345/340
f 157/143/143 160/226/223 159/261/258
f 207/346/341 210/28/28 209/347/342
f 401/219/217 399/348/343 400/75/75
f 386/336/331 281/207/205 279/206/204
f 321/222/219 307/215/213 309/220/10
f 314/334/329 332/277/274 330/278/275
f 282/305/300 296/345/340 280/204/202
f 108/120/120 51/349/344 115/350/345
f 225/318/313 208/27/27 207/346/341
f 336/221/218 337/351/346 322/352/347
f 220/46/46 221/249/246 204/44/44
f 133/86/86 271/353/348 147/202/200
f 256/311/306 257/289/286 258/325/320
f 229/354/349 247/355/350 231/11/11
f 368/242/239 370/287/284 379/356/351
f 342/138/138 340/273/270 341/139/139
f 417/233/230 427/265/262 426/62/62
f 229/354/349 243/195/193 245/302/298
f 285/357/352 275/254/251 287/121/121
f 340/273/270 345/358/353 346/359/354
f 210/28/28 211/360/355 209/347/342
f 396/235/232 420/333/328 417/233/230
f 366/361/356 368/242/239 379/356/351
f 346/359/354 365/243/240 366/361/356
f 269/76/76 253/362/357 268/77/77
f 193/329/324 192/212/210 194/231/228
f 117/47/47 65/43/43 63/174/174
f 352/182/180 367/106/106 350/108/108
f 245/302/298 244/194/192 246/33/33
f 338/285/282 337/351/346 336/221/218
f 58/275/272 116/100/100 61/57/57
f 56/274/271 66/90/90 118/96/96
f 280/204/202 294/67/67 278/363/358
f 70/92/92 46/125/125 47/124/124
f 287/121/121 290/177/177 302/229/226
f 295/364/359 310/51/51 293/65/65
f 137/337/332 261/227/224 259/246/243
f 428/365/360 434/366/361 433/264/261
f 407/297/293 410/367/362 409/332/327
f 409/332/327 411/368/363 412/130/130
f 333/211/209 332/277/274 334/369/183
f 421/129/129 427/265/262 420/333/328
f 396/235/232 405/298/294 407/297/293
f 412/130/130 411/368/363 414/370/364
f 58/275/272 59/371/365 55/276/273
f 61/57/57 60/372/366 58/275/272
f 72/80/80 66/90/90 70/92/92
f 424/64/64 435/373/367 425/218/216
f 362/251/248 375/87/87 373/315/310
f 297/303/187 311/241/238 295/364/359
f 419/183/181 412/130/130 401/219/217
f 119/284/281 57/101/101 56/274/271
f 415/217/215 393/73/73 392/234/231
f 237/225/222 236/374/368 251/375/304
f 323/52/52 309/220/10 308/53/53
f 263/156/156 142/168/168 265/112/112
f 394/376/369 393/73/73 404/282/279
f 249/377/370 233/378/371 247/355/350
f 434/366/361 430/132/132 435/373/367
f 425/218/216 435/373/367 431/117/117
f 394/376/369 392/234/231 393/73/73
f 359/314/309 374/379/372 360/380/227
f 297/303/187 294/67/67 296/345/340
f 116/100/100 122/42/42 117/47/47
f 389/381/373 273/257/254 285/357/352
f 429/133/133 430/132/132 434/366/361
f 4/4/4 2/8/8 3/382/374
f 489/383/375 494/384/376 485/385/377
f 66/90/90 59/371/365 67/386/378
f 81/20/20 9/16/16 8/21/21
f 252/223/220 240/161/161 238/189/187
f 481/387/379 475/388/380 479/389/381
f 106/390/382 38/164/164 102/150/150
f 401/219/217 414/370/364 413/391/383
f 18/147/147 29/153/153 35/166/166
f 433/264/261 427/265/262 428/365/360
f 52/38/38 25/32/32 99/39/39
f 437/392/384 441/393/385 445/394/386
f 466/395/387 468/396/388 470/397/389
f 418/74/74 416/116/116 423/118/118
f 418/74/74 423/118/118 419/183/181
f 16/1/1 24/398/390 22/2/2
f 228/10/10 229/354/349 231/11/11
f 348/107/107 365/243/240 346/359/354
f 211/360/355 212/187/185 215/317/312
f 215/317/312 213/399/391 211/360/355
f 213/399/391 214/400/392 211/360/355
f 10/7/7 3/382/374 2/8/8
f 12/24/24 1/6/6 13/5/5
f 208/27/27 226/192/190 228/10/10
f 454/401/393 455/402/394 456/403/395
f 458/404/396 459/29/29 463/31/31
f 461/405/397 462/406/398 460/30/30
f 462/406/398 463/31/31 460/30/30
f 463/31/31 454/401/393 458/404/396
f 454/401/393 456/403/395 457/407/399
f 458/404/396 454/401/393 457/407/399
f 246/33/33 244/194/192 260/34/34
f 204/44/44 201/408/400 218/45/45
f 45/48/48 50/409/401 40/49/49
f 310/51/51 327/307/302 323/52/52
f 87/56/56 90/410/402 89/411/403
f 89/411/403 84/54/54 87/56/56
f 61/57/57 63/174/174 64/37/37
f 156/59/59 172/263/260 174/60/60
f 276/66/66 278/363/358 294/67/67
f 294/67/67 295/364/359 293/65/65
f 29/153/153 28/152/152 33/412/404
f 138/68/68 139/339/334 141/69/69
f 54/81/81 72/80/80 47/124/124
f 72/80/80 70/92/92 47/124/124
f 42/114/114 80/103/103 40/49/49
f 80/103/103 54/81/81 44/50/50
f 40/49/49 80/103/103 44/50/50
f 47/124/124 44/50/50 54/81/81
f 108/120/120 42/114/114 40/49/49
f 41/83/83 108/120/120 40/49/49
f 217/72/72 219/185/183 220/46/46
f 220/46/46 218/45/45 217/72/72
f 115/350/345 112/119/119 108/120/120
f 393/73/73 416/116/116 418/74/74
f 270/78/78 146/320/315 147/202/200
f 147/202/200 271/353/348 270/78/78
f 271/353/348 269/76/76 270/78/78
f 111/79/79 126/97/97 72/80/80
f 40/49/49 49/413/405 48/82/82
f 135/84/84 136/414/406 134/85/85
f 37/23/23 1/6/6 12/24/24
f 376/89/89 374/379/372 373/315/310
f 373/315/310 375/87/87 376/89/89
f 66/90/90 67/386/378 71/91/91
f 320/93/93 305/330/325 304/94/94
f 118/96/96 72/80/80 126/97/97
f 120/99/99 121/415/407 116/100/100
f 367/106/106 365/243/240 348/107/107
f 153/109/109 152/197/195 167/110/110
f 262/35/35 263/156/156 265/112/112
f 110/104/104 80/103/103 42/114/114
f 416/116/116 425/218/216 431/117/117
f 112/119/119 113/416/408 42/114/114
f 286/123/123 390/417/409 389/381/373
f 389/381/373 285/357/352 286/123/123
f 285/357/352 287/121/121 286/123/123
f 43/105/105 44/50/50 47/124/124
f 181/128/128 166/196/194 165/126/126
f 166/196/194 164/210/208 165/126/126
f 164/210/208 163/418/410 165/126/126
f 421/129/129 409/332/327 412/130/130
f 422/131/131 419/183/181 430/132/132
f 74/419/411 75/420/412 78/141/141
f 75/420/412 73/142/142 78/141/141
f 69/421/413 14/422/414 68/140/140
f 14/422/414 15/172/172 68/140/140
f 77/423/411 74/419/411 78/141/141
f 76/424/411 77/423/411 78/141/141
f 73/142/142 69/421/413 68/140/140
f 157/143/143 155/190/188 156/59/59
f 92/144/144 91/151/151 97/145/145
f 109/102/102 111/79/79 54/81/81
f 93/149/149 106/390/382 102/150/150
f 260/34/34 261/227/224 263/156/156
f 239/160/160 238/189/187 240/161/161
f 409/332/327 410/367/362 408/425/415
f 31/159/159 34/426/416 35/166/166
f 143/169/169 159/261/258 161/260/257
f 161/260/257 145/427/417 143/169/169
f 145/427/417 144/167/167 143/169/169
f 23/148/148 29/153/153 17/3/3
f 15/172/172 14/422/414 11/171/171
f 11/171/171 5/136/136 7/135/135
f 289/175/175 291/214/212 292/176/176
f 128/428/178 129/429/178 132/180/178
f 129/429/178 130/430/178 132/180/178
f 132/180/178 125/431/418 127/178/178
f 125/431/418 89/411/403 90/410/402
f 125/431/418 90/410/402 124/432/419
f 131/179/178 128/428/178 132/180/178
f 125/431/418 124/432/419 127/178/178
f 350/108/108 349/259/256 351/181/179
f 419/183/181 423/118/118 431/117/117
f 344/184/182 359/314/309 357/137/137
f 140/70/70 141/69/69 143/169/169
f 234/186/184 236/374/368 237/225/222
f 237/225/222 235/250/247 234/186/184
f 235/250/247 220/46/46 234/186/184
f 228/10/10 230/12/12 212/187/185
f 224/188/186 223/224/221 238/189/187
f 141/69/69 139/339/334 155/190/188
f 259/246/243 242/193/191 241/162/162
f 241/162/162 256/311/306 259/246/243
f 256/311/306 258/325/320 259/246/243
f 227/191/189 229/354/349 228/10/10
f 243/195/193 227/191/189 225/318/313
f 225/318/313 242/193/191 243/195/193
f 166/196/194 181/128/128 167/110/110
f 325/198/196 326/433/420 324/199/197
f 167/110/110 181/128/128 183/200/198
f 135/84/84 133/86/86 147/202/200
f 280/204/202 278/363/358 277/205/203
f 388/209/207 283/434/78 281/207/205
f 283/434/78 284/435/421 281/207/205
f 284/435/421 282/305/300 281/207/205
f 164/210/208 150/244/241 135/84/84
f 333/211/209 194/231/228 192/212/210
f 291/214/212 306/300/296 307/215/213
f 267/216/214 266/436/422 264/113/113
f 266/436/422 250/437/423 264/113/113
f 250/437/423 248/301/297 264/113/113
f 29/153/153 33/412/404 32/157/157
f 415/217/215 424/64/64 425/218/216
f 418/74/74 419/183/181 401/219/217
f 309/220/10 324/199/197 336/221/218
f 157/143/143 159/261/258 143/169/169
f 252/223/220 238/189/187 223/224/221
f 429/133/133 428/365/360 421/129/129
f 174/60/60 176/294/290 160/226/223
f 88/22/22 37/23/23 52/38/38
f 142/168/168 144/167/167 267/216/214
f 140/70/70 263/156/156 261/227/224
f 361/253/250 346/359/354 363/344/339
f 346/359/354 378/438/424 363/344/339
f 222/228/225 221/249/246 223/224/221
f 302/229/226 290/177/177 292/176/176
f 195/230/227 193/329/324 194/231/228
f 417/233/230 415/217/215 392/234/231
f 199/238/235 339/439/425 338/285/282
f 338/285/282 200/270/267 199/238/235
f 200/270/267 198/236/233 199/238/235
f 313/239/236 314/334/329 312/240/237
f 368/242/239 366/361/356 365/243/240
f 150/244/241 152/197/195 153/109/109
f 276/66/66 384/440/426 277/205/203
f 384/440/426 385/335/330 277/205/203
f 277/205/203 278/363/358 276/66/66
f 260/34/34 244/194/192 242/193/191
f 242/193/191 259/246/243 260/34/34
f 36/247/244 31/159/159 38/164/164
f 237/225/222 223/224/221 221/249/246
f 164/210/208 166/196/194 152/197/195
f 362/251/248 344/184/182 343/252/249
f 289/175/175 290/177/177 275/254/251
f 272/256/253 274/255/252 275/254/251
f 350/108/108 348/107/107 347/258/255
f 160/226/223 176/294/290 178/327/322
f 178/327/322 162/441/427 160/226/223
f 162/441/427 161/260/257 160/226/223
f 156/59/59 155/190/188 154/338/333
f 154/338/333 171/262/259 156/59/59
f 433/264/261 432/63/63 426/62/62
f 202/266/263 201/408/400 204/44/44
f 137/337/332 259/246/243 258/325/320
f 258/325/320 134/85/85 137/337/332
f 134/85/85 136/414/406 137/337/332
f 200/270/267 186/286/283 184/271/268
f 415/217/215 417/233/230 426/62/62
f 273/257/254 382/442/411 383/272/269
f 344/184/182 341/139/139 340/273/270
f 56/274/271 57/101/101 58/275/272
f 332/277/274 333/211/209 331/213/211
f 304/94/94 292/176/176 307/215/213
f 353/443/428 354/444/429 351/181/179
f 354/444/429 355/279/276 351/181/179
f 172/263/260 173/313/308 175/280/277
f 329/281/278 328/445/430 330/278/275
f 404/282/279 393/73/73 400/75/75
f 118/96/96 123/98/98 119/284/281
f 401/219/217 413/391/383 402/446/431
f 338/285/282 326/433/420 186/286/283
f 8/21/21 9/16/16 2/8/8
f 370/287/284 369/292/288 371/291/287
f 371/291/287 372/447/432 370/287/284
f 372/447/432 380/448/433 370/287/284
f 367/106/106 369/292/288 370/287/284
f 20/14/14 2/8/8 9/16/16
f 182/288/285 197/237/234 198/236/233
f 198/236/233 183/200/198 182/288/285
f 183/200/198 181/128/128 182/288/285
f 269/76/76 271/353/348 257/289/286
f 352/182/180 355/279/276 371/291/287
f 187/293/289 185/341/336 184/271/268
f 312/240/237 328/445/430 327/307/302
f 327/307/302 310/51/51 312/240/237
f 151/245/242 136/414/406 135/84/84
f 205/267/264 204/44/44 221/249/246
f 175/280/277 177/328/323 176/294/290
f 169/201/199 183/200/198 198/236/233
f 357/137/137 359/314/309 358/295/291
f 359/314/309 360/380/227 358/295/291
f 308/53/53 309/220/10 307/215/213
f 248/301/297 247/355/350 245/302/298
f 297/303/187 299/310/305 315/304/299
f 38/164/164 31/159/159 30/158/158
f 116/100/100 117/47/47 63/174/174
f 279/206/204 281/207/205 282/305/300
f 327/307/302 329/281/278 190/308/303
f 190/308/303 189/324/319 188/306/301
f 301/309/304 317/326/321 315/304/299
f 241/162/162 240/161/161 255/290/202
f 170/312/307 168/111/111 167/110/110
f 171/262/259 188/306/301 173/313/308
f 188/306/301 189/324/319 173/313/308
f 359/314/309 344/184/182 362/251/248
f 215/317/312 212/187/185 230/12/12
f 230/12/12 231/11/11 233/378/371
f 233/378/371 232/316/311 230/12/12
f 226/192/190 208/27/27 225/318/313
f 31/159/159 36/247/244 34/426/416
f 316/319/314 314/334/329 313/239/236
f 148/321/316 163/418/410 164/210/208
f 164/210/208 149/203/201 148/321/316
f 149/203/201 147/202/200 148/321/316
f 255/290/202 240/161/161 254/322/317
f 191/323/318 175/280/277 173/313/308
f 133/86/86 134/85/85 258/325/320
f 41/83/83 48/82/82 51/349/344
f 272/256/253 383/272/269 276/66/66
f 383/272/269 384/440/426 276/66/66
f 205/267/264 222/228/225 225/318/313
f 222/228/225 224/188/186 225/318/313
f 377/449/434 364/343/338 363/344/339
f 317/326/321 318/450/184 316/319/314
f 318/450/184 334/369/183 316/319/314
f 334/369/183 332/277/274 316/319/314
f 177/328/323 193/329/324 195/230/227
f 195/230/227 179/451/372 177/328/323
f 179/451/372 178/327/322 177/328/323
f 102/150/150 38/164/164 104/163/163
f 175/280/277 191/323/318 193/329/324
f 303/331/326 288/122/122 287/121/121
f 287/121/121 302/229/226 303/331/326
f 302/229/226 304/94/94 303/331/326
f 409/332/327 421/129/129 420/333/328
f 330/278/275 328/445/430 312/240/237
f 279/206/204 277/205/203 385/335/330
f 154/338/333 155/190/188 139/339/334
f 139/339/334 138/68/68 137/337/332
f 396/235/232 392/234/231 398/269/266
f 185/341/336 170/312/307 169/201/199
f 298/342/337 282/305/300 284/435/421
f 284/435/421 300/452/435 298/342/337
f 300/452/435 301/309/304 298/342/337
f 186/286/283 326/433/420 325/198/196
f 291/214/212 293/65/65 310/51/51
f 308/53/53 306/300/296 310/51/51
f 364/343/338 362/251/248 361/253/250
f 274/255/252 276/66/66 293/65/65
f 291/214/212 289/175/175 293/65/65
f 324/199/197 326/433/420 338/285/282
f 246/33/33 262/35/35 264/113/113
f 191/323/318 189/324/319 190/308/303
f 190/308/303 329/281/278 331/213/211
f 298/342/337 299/310/305 297/303/187
f 157/143/143 158/61/61 160/226/223
f 207/346/341 208/27/27 210/28/28
f 401/219/217 402/446/431 399/348/343
f 386/336/331 387/208/206 281/207/205
f 203/453/436 201/408/400 202/266/263
f 321/222/219 319/95/95 307/215/213
f 314/334/329 316/319/314 332/277/274
f 282/305/300 298/342/337 296/345/340
f 108/120/120 41/83/83 51/349/344
f 206/454/437 225/318/313 207/346/341
f 322/352/347 320/93/93 319/95/95
f 319/95/95 321/222/219 322/352/347
f 321/222/219 336/221/218 322/352/347
f 220/46/46 235/250/247 221/249/246
f 133/86/86 257/289/286 271/353/348
f 327/307/302 188/306/301 187/293/289
f 187/293/289 325/198/196 327/307/302
f 325/198/196 323/52/52 327/307/302
f 256/311/306 255/290/202 257/289/286
f 99/39/39 25/32/32 65/43/43
f 229/354/349 245/302/298 247/355/350
f 242/193/191 225/318/313 224/188/186
f 224/188/186 239/160/160 242/193/191
f 239/160/160 241/162/162 242/193/191
f 154/338/333 137/337/332 136/414/406
f 136/414/406 151/245/242 154/338/333
f 151/245/242 153/109/109 154/338/333
f 218/45/45 201/408/400 203/453/436
f 417/233/230 420/333/328 427/265/262
f 229/354/349 227/191/189 243/195/193
f 285/357/352 273/257/254 275/254/251
f 346/359/354 343/252/249 340/273/270
f 348/107/107 346/359/354 347/258/255
f 346/359/354 345/358/353 347/258/255
f 210/28/28 212/187/185 211/360/355
f 188/306/301 171/262/259 170/312/307
f 170/312/307 185/341/336 188/306/301
f 185/341/336 187/293/289 188/306/301
f 396/235/232 407/297/293 420/333/328
f 399/348/343 403/283/280 400/75/75
f 378/438/424 346/359/354 366/361/356
f 269/76/76 254/322/317 253/362/357
f 193/329/324 191/323/318 192/212/210
f 117/47/47 99/39/39 65/43/43
f 352/182/180 369/292/288 367/106/106
f 245/302/298 243/195/193 244/194/192
f 171/262/259 154/338/333 153/109/109
f 153/109/109 168/111/111 171/262/259
f 168/111/111 170/312/307 171/262/259
f 338/285/282 339/439/425 337/351/346
f 431/117/117 435/373/367 430/132/132
f 58/275/272 57/101/101 116/100/100
f 56/274/271 55/276/273 66/90/90
f 280/204/202 296/345/340 294/67/67
f 70/92/92 71/91/91 46/125/125
f 346/359/354 361/253/250 343/252/249
f 287/121/121 275/254/251 290/177/177
f 295/364/359 311/241/238 310/51/51
f 137/337/332 138/68/68 261/227/224
f 428/365/360 429/133/133 434/366/361
f 407/297/293 406/299/295 410/367/362
f 409/332/327 408/425/415 411/368/363
f 396/235/232 397/340/335 395/455/438
f 334/369/183 335/456/439 333/211/209
f 335/456/439 196/232/229 333/211/209
f 196/232/229 194/231/228 333/211/209
f 421/129/129 428/365/360 427/265/262
f 202/266/263 205/267/264 225/318/313
f 225/318/313 206/454/437 202/266/263
f 396/235/232 395/455/438 405/298/294
f 58/275/272 60/372/366 59/371/365
f 61/57/57 62/58/58 60/372/366
f 72/80/80 118/96/96 66/90/90
f 424/64/64 432/63/63 435/373/367
f 362/251/248 364/343/338 375/87/87
f 297/303/187 313/239/236 311/241/238
f 419/183/181 422/131/131 412/130/130
f 119/284/281 120/99/99 57/101/101
f 415/217/215 416/116/116 393/73/73
f 375/87/87 364/343/338 377/449/434
f 327/307/302 328/445/430 329/281/278
f 107/457/440 39/248/245 38/164/164
f 251/375/304 253/362/357 254/322/317
f 254/322/317 252/223/220 251/375/304
f 252/223/220 237/225/222 251/375/304
f 323/52/52 324/199/197 309/220/10
f 263/156/156 140/70/70 142/168/168
f 233/378/371 231/11/11 247/355/350
f 247/355/350 248/301/297 250/437/423
f 250/437/423 249/377/370 247/355/350
f 435/373/367 432/63/63 433/264/261
f 433/264/261 434/366/361 435/373/367
f 394/376/369 391/268/265 392/234/231
f 113/416/408 114/115/115 42/114/114
f 359/314/309 373/315/310 374/379/372
f 40/49/49 50/409/401 49/413/405
f 297/303/187 295/364/359 294/67/67
f 116/100/100 121/415/407 122/42/42
f 389/381/373 382/442/411 273/257/254
f 4/4/4 1/6/6 2/8/8
f 490/458/441 491/459/442 492/460/443
f 489/383/375 490/458/441 494/384/376
f 492/460/443 493/461/444 494/384/376
f 494/384/376 495/462/445 485/385/377
f 485/385/377 486/402/446 487/463/447
f 487/463/447 488/464/448 485/385/377
f 488/464/448 489/383/375 485/385/377
f 494/384/376 490/458/441 492/460/443
f 66/90/90 55/276/273 59/371/365
f 81/20/20 82/26/26 9/16/16
f 252/223/220 254/322/317 240/161/161
f 484/465/449 474/466/450 475/388/380
f 475/388/380 476/467/451 477/468/452
f 484/465/449 475/388/380 483/469/453
f 477/468/452 478/470/454 479/389/381
f 481/387/379 482/471/455 483/469/453
f 483/469/453 475/388/380 481/387/379
f 477/468/452 479/389/381 475/388/380
f 479/389/381 480/472/456 481/387/379
f 106/390/382 107/457/440 38/164/164
f 401/219/217 412/130/130 414/370/364
f 18/147/147 17/3/3 29/153/153
f 52/38/38 12/24/24 25/32/32
f 447/459/457 448/473/458 451/474/459
f 448/473/458 449/471/460 451/474/459
f 449/471/460 450/461/461 451/474/459
f 451/474/459 452/475/462 437/392/384
f 452/475/462 453/462/463 437/392/384
f 453/462/463 436/466/464 437/392/384
f 437/392/384 438/402/465 439/467/466
f 439/467/466 440/476/467 437/392/384
f 440/476/467 441/393/385 437/392/384
f 441/393/385 442/470/468 443/404/469
f 443/404/469 444/477/470 445/394/386
f 445/394/386 446/478/471 447/459/457
f 441/393/385 443/404/469 445/394/386
f 445/394/386 447/459/457 451/474/459
f 451/474/459 437/392/384 445/394/386
f 465/392/472 466/395/387 464/479/473
f 466/395/387 467/480/474 468/396/388
f 469/481/475 470/397/389 468/396/388
f 470/397/389 471/473/476 472/482/477
f 472/482/477 473/483/478 464/479/473
f 470/397/389 472/482/477 464/479/473
f 464/479/473 466/395/387 470/397/389
